<?xml version="1.0" encoding="UTF-8" standalone="no"?>
<!DOCTYPE svg PUBLIC "-//W3C//DTD SVG 1.1//EN"
 "http://www.w3.org/Graphics/SVG/1.1/DTD/svg11.dtd">
<!-- Generated by graphviz version 2.40.1 (20161225.0304)
 -->
<!-- Title: %0 Pages: 1 -->
<svg width="349pt" height="206pt"
 viewBox="0.00 0.00 349.00 205.80" xmlns="http://www.w3.org/2000/svg" xmlns:xlink="http://www.w3.org/1999/xlink">
<g id="graph0" class="graph" transform="scale(1 1) rotate(0) translate(4 201.8)">
<title>%0</title>
<polygon fill="#ffffff" stroke="transparent" points="-4,4 -4,-201.8 344.999,-201.8 344.999,4 -4,4"/>
<!-- Capturing -->
<g id="node1" class="node">
<title>Capturing</title>
<path fill="none" stroke="#000000" d="M165.4804,-197.8C165.4804,-197.8 117.4944,-197.8 117.4944,-197.8 111.4944,-197.8 105.4944,-191.8 105.4944,-185.8 105.4944,-185.8 105.4944,-173.8 105.4944,-173.8 105.4944,-167.8 111.4944,-161.8 117.4944,-161.8 117.4944,-161.8 165.4804,-161.8 165.4804,-161.8 171.4804,-161.8 177.4804,-167.8 177.4804,-173.8 177.4804,-173.8 177.4804,-185.8 177.4804,-185.8 177.4804,-191.8 171.4804,-197.8 165.4804,-197.8"/>
<text text-anchor="middle" x="141.4874" y="-175.6" font-family="Times,serif" font-size="14.00" fill="#000000">Capturing</text>
</g>
<!-- HasDefeatedOpponent -->
<g id="node4" class="node">
<title>HasDefeatedOpponent</title>
<polygon fill="none" stroke="#000000" points="141.4874,-109 1.5314,-91 141.4874,-73 281.4434,-91 141.4874,-109"/>
<text text-anchor="middle" x="141.4874" y="-86.8" font-family="Times,serif" font-size="14.00" fill="#000000">HasDefeatedOpponent</text>
</g>
<!-- Capturing&#45;&gt;HasDefeatedOpponent -->
<g id="edge1" class="edge">
<title>Capturing&#45;&gt;HasDefeatedOpponent</title>
<path fill="none" stroke="#000000" d="M141.4874,-161.4006C141.4874,-149.2949 141.4874,-133.2076 141.4874,-119.4674"/>
<polygon fill="#000000" stroke="#000000" points="144.9875,-119.072 141.4874,-109.072 137.9875,-119.0721 144.9875,-119.072"/>
<text text-anchor="middle" x="163.6459" y="-131.2" font-family="Times,serif" font-size="14.00" fill="#000000">Capture</text>
</g>
<!-- TradingCards -->
<g id="node2" class="node">
<title>TradingCards</title>
<path fill="none" stroke="#000000" d="M80.9622,-36C80.9622,-36 12.0126,-36 12.0126,-36 6.0126,-36 .0126,-30 .0126,-24 .0126,-24 .0126,-12 .0126,-12 .0126,-6 6.0126,0 12.0126,0 12.0126,0 80.9622,0 80.9622,0 86.9622,0 92.9622,-6 92.9622,-12 92.9622,-12 92.9622,-24 92.9622,-24 92.9622,-30 86.9622,-36 80.9622,-36"/>
<text text-anchor="middle" x="46.4874" y="-13.8" font-family="Times,serif" font-size="14.00" fill="#000000">TradingCards</text>
</g>
<!-- Battling -->
<g id="node3" class="node">
<title>Battling</title>
<path fill="none" stroke="#000000" d="M160.1011,-36C160.1011,-36 122.8737,-36 122.8737,-36 116.8737,-36 110.8737,-30 110.8737,-24 110.8737,-24 110.8737,-12 110.8737,-12 110.8737,-6 116.8737,0 122.8737,0 122.8737,0 160.1011,0 160.1011,0 166.1011,0 172.1011,-6 172.1011,-12 172.1011,-12 172.1011,-24 172.1011,-24 172.1011,-30 166.1011,-36 160.1011,-36"/>
<text text-anchor="middle" x="141.4874" y="-13.8" font-family="Times,serif" font-size="14.00" fill="#000000">Battling</text>
</g>
<!-- HasDefeatedOpponent&#45;&gt;TradingCards -->
<g id="edge2" class="edge">
<title>HasDefeatedOpponent&#45;&gt;TradingCards</title>
<path fill="none" stroke="#000000" d="M121.3403,-75.5186C108.7741,-65.8624 92.3334,-53.2291 78.0619,-42.2625"/>
<polygon fill="#000000" stroke="#000000" points="80.0173,-39.3511 69.9553,-36.0332 75.7521,-44.9016 80.0173,-39.3511"/>
</g>
<!-- HasDefeatedOpponent&#45;&gt;Battling -->
<g id="edge4" class="edge">
<title>HasDefeatedOpponent&#45;&gt;Battling</title>
<path fill="none" stroke="#000000" d="M141.4874,-72.9551C141.4874,-64.8828 141.4874,-55.1764 141.4874,-46.1817"/>
<polygon fill="#000000" stroke="#000000" points="144.9875,-46.0903 141.4874,-36.0904 137.9875,-46.0904 144.9875,-46.0903"/>
</g>
<!-- GameOver -->
<g id="node5" class="node">
<title>GameOver</title>
<polygon fill="none" stroke="#000000" points="265.4874,-36 189.9642,-18 265.4874,0 341.0106,-18 265.4874,-36"/>
<text text-anchor="middle" x="265.4874" y="-13.8" font-family="Times,serif" font-size="14.00" fill="#000000">GameOver</text>
</g>
<!-- HasDefeatedOpponent&#45;&gt;GameOver -->
<g id="edge3" class="edge">
<title>HasDefeatedOpponent&#45;&gt;GameOver</title>
<path fill="none" stroke="#000000" d="M166.8799,-76.0512C186.5073,-64.4963 213.7605,-48.4521 234.6427,-36.1586"/>
<polygon fill="#000000" stroke="#000000" points="236.6074,-39.0635 243.4493,-30.974 233.0561,-33.0312 236.6074,-39.0635"/>
</g>
</g>
</svg>
