<?xml version="1.0" encoding="UTF-8" standalone="no"?>
<!DOCTYPE svg PUBLIC "-//W3C//DTD SVG 1.1//EN"
 "http://www.w3.org/Graphics/SVG/1.1/DTD/svg11.dtd">
<!-- Generated by graphviz version 2.40.1 (20161225.0304)
 -->
<!-- Title: %0 Pages: 1 -->
<svg width="244pt" height="279pt"
 viewBox="0.00 0.00 244.30 278.80" xmlns="http://www.w3.org/2000/svg" xmlns:xlink="http://www.w3.org/1999/xlink">
<g id="graph0" class="graph" transform="scale(1 1) rotate(0) translate(4 274.8)">
<title>%0</title>
<polygon fill="#ffffff" stroke="transparent" points="-4,4 -4,-274.8 240.3016,-274.8 240.3016,4 -4,4"/>
<!-- DrawingRandomCard -->
<g id="node1" class="node">
<title>DrawingRandomCard</title>
<path fill="none" stroke="#000000" d="M167.1205,-270.8C167.1205,-270.8 51.8543,-270.8 51.8543,-270.8 45.8543,-270.8 39.8543,-264.8 39.8543,-258.8 39.8543,-258.8 39.8543,-246.8 39.8543,-246.8 39.8543,-240.8 45.8543,-234.8 51.8543,-234.8 51.8543,-234.8 167.1205,-234.8 167.1205,-234.8 173.1205,-234.8 179.1205,-240.8 179.1205,-246.8 179.1205,-246.8 179.1205,-258.8 179.1205,-258.8 179.1205,-264.8 173.1205,-270.8 167.1205,-270.8"/>
<text text-anchor="middle" x="109.4874" y="-248.6" font-family="Times,serif" font-size="14.00" fill="#000000">DrawingRandomCard</text>
</g>
<!-- SetupNextTurn -->
<g id="node4" class="node">
<title>SetupNextTurn</title>
<polygon fill="none" stroke="#000000" points="109.4874,-182 9.875,-164 109.4874,-146 209.0998,-164 109.4874,-182"/>
<text text-anchor="middle" x="109.4874" y="-159.8" font-family="Times,serif" font-size="14.00" fill="#000000">SetupNextTurn</text>
</g>
<!-- DrawingRandomCard&#45;&gt;SetupNextTurn -->
<g id="edge1" class="edge">
<title>DrawingRandomCard&#45;&gt;SetupNextTurn</title>
<path fill="none" stroke="#000000" d="M109.4874,-234.4006C109.4874,-222.2949 109.4874,-206.2076 109.4874,-192.4674"/>
<polygon fill="#000000" stroke="#000000" points="112.9875,-192.072 109.4874,-182.072 105.9875,-192.0721 112.9875,-192.072"/>
<text text-anchor="middle" x="162.3584" y="-204.2" font-family="Times,serif" font-size="14.00" fill="#000000">DrawRandomCard</text>
</g>
<!-- TradingCards -->
<g id="node2" class="node">
<title>TradingCards</title>
<path fill="none" stroke="#000000" d="M80.9622,-36C80.9622,-36 12.0126,-36 12.0126,-36 6.0126,-36 .0126,-30 .0126,-24 .0126,-24 .0126,-12 .0126,-12 .0126,-6 6.0126,0 12.0126,0 12.0126,0 80.9622,0 80.9622,0 86.9622,0 92.9622,-6 92.9622,-12 92.9622,-12 92.9622,-24 92.9622,-24 92.9622,-30 86.9622,-36 80.9622,-36"/>
<text text-anchor="middle" x="46.4874" y="-13.8" font-family="Times,serif" font-size="14.00" fill="#000000">TradingCards</text>
</g>
<!-- PlacingNewArmies -->
<g id="node3" class="node">
<title>PlacingNewArmies</title>
<path fill="none" stroke="#000000" d="M224.1163,-36C224.1163,-36 122.8585,-36 122.8585,-36 116.8585,-36 110.8585,-30 110.8585,-24 110.8585,-24 110.8585,-12 110.8585,-12 110.8585,-6 116.8585,0 122.8585,0 122.8585,0 224.1163,0 224.1163,0 230.1163,0 236.1163,-6 236.1163,-12 236.1163,-12 236.1163,-24 236.1163,-24 236.1163,-30 230.1163,-36 224.1163,-36"/>
<text text-anchor="middle" x="173.4874" y="-13.8" font-family="Times,serif" font-size="14.00" fill="#000000">PlacingNewArmies</text>
</g>
<!-- HasCards -->
<g id="node5" class="node">
<title>HasCards</title>
<polygon fill="none" stroke="#000000" points="109.4874,-109 40.5933,-91 109.4874,-73 178.3815,-91 109.4874,-109"/>
<text text-anchor="middle" x="109.4874" y="-86.8" font-family="Times,serif" font-size="14.00" fill="#000000">HasCards</text>
</g>
<!-- SetupNextTurn&#45;&gt;HasCards -->
<g id="edge2" class="edge">
<title>SetupNextTurn&#45;&gt;HasCards</title>
<path fill="none" stroke="#000000" d="M109.4874,-145.9551C109.4874,-137.8828 109.4874,-128.1764 109.4874,-119.1817"/>
<polygon fill="#000000" stroke="#000000" points="112.9875,-119.0903 109.4874,-109.0904 105.9875,-119.0904 112.9875,-119.0903"/>
</g>
<!-- HasCards&#45;&gt;TradingCards -->
<g id="edge3" class="edge">
<title>HasCards&#45;&gt;TradingCards</title>
<path fill="none" stroke="#000000" d="M96.7384,-76.2274C88.6952,-66.9075 78.0876,-54.6161 68.6919,-43.7291"/>
<polygon fill="#000000" stroke="#000000" points="71.3018,-41.3962 62.1186,-36.1123 66.0024,-45.9697 71.3018,-41.3962"/>
</g>
<!-- HasCards&#45;&gt;PlacingNewArmies -->
<g id="edge4" class="edge">
<title>HasCards&#45;&gt;PlacingNewArmies</title>
<path fill="none" stroke="#000000" d="M122.4388,-76.2274C130.6096,-66.9075 141.3856,-54.6161 150.9304,-43.7291"/>
<polygon fill="#000000" stroke="#000000" points="153.6475,-45.9391 157.6081,-36.1123 148.3839,-41.3244 153.6475,-45.9391"/>
</g>
</g>
</svg>
