<?xml version="1.0" encoding="UTF-8" standalone="no"?>
<!DOCTYPE svg PUBLIC "-//W3C//DTD SVG 1.1//EN"
 "http://www.w3.org/Graphics/SVG/1.1/DTD/svg11.dtd">
<!-- Generated by graphviz version 2.40.1 (20161225.0304)
 -->
<!-- Title: %0 Pages: 1 -->
<svg width="184pt" height="133pt"
 viewBox="0.00 0.00 183.61 132.80" xmlns="http://www.w3.org/2000/svg" xmlns:xlink="http://www.w3.org/1999/xlink">
<g id="graph0" class="graph" transform="scale(1 1) rotate(0) translate(4 128.8)">
<title>%0</title>
<polygon fill="#ffffff" stroke="transparent" points="-4,4 -4,-128.8 179.6052,-128.8 179.6052,4 -4,4"/>
<!-- Battling -->
<g id="node1" class="node">
<title>Battling</title>
<path fill="none" stroke="#000000" d="M103.0015,-124.8C103.0015,-124.8 65.7741,-124.8 65.7741,-124.8 59.7741,-124.8 53.7741,-118.8 53.7741,-112.8 53.7741,-112.8 53.7741,-100.8 53.7741,-100.8 53.7741,-94.8 59.7741,-88.8 65.7741,-88.8 65.7741,-88.8 103.0015,-88.8 103.0015,-88.8 109.0015,-88.8 115.0015,-94.8 115.0015,-100.8 115.0015,-100.8 115.0015,-112.8 115.0015,-112.8 115.0015,-118.8 109.0015,-124.8 103.0015,-124.8"/>
<text text-anchor="middle" x="84.3878" y="-102.6" font-family="Times,serif" font-size="14.00" fill="#000000">Battling</text>
</g>
<!-- Fortifying -->
<g id="node2" class="node">
<title>Fortifying</title>
<path fill="none" stroke="#000000" d="M60.6637,-36C60.6637,-36 12.1119,-36 12.1119,-36 6.1119,-36 .1119,-30 .1119,-24 .1119,-24 .1119,-12 .1119,-12 .1119,-6 6.1119,0 12.1119,0 12.1119,0 60.6637,0 60.6637,0 66.6637,0 72.6637,-6 72.6637,-12 72.6637,-12 72.6637,-24 72.6637,-24 72.6637,-30 66.6637,-36 60.6637,-36"/>
<text text-anchor="middle" x="36.3878" y="-13.8" font-family="Times,serif" font-size="14.00" fill="#000000">Fortifying</text>
</g>
<!-- Battling&#45;&gt;Fortifying -->
<g id="edge1" class="edge">
<title>Battling&#45;&gt;Fortifying</title>
<path fill="none" stroke="#000000" d="M64.8509,-88.6643C59.9427,-83.3015 55.0684,-77.1539 51.5182,-70.8 47.3322,-63.3081 44.2194,-54.558 41.9426,-46.3605"/>
<polygon fill="#000000" stroke="#000000" points="45.2809,-45.2794 39.4879,-36.4086 38.4846,-46.9558 45.2809,-45.2794"/>
<text text-anchor="middle" x="81.3226" y="-58.2" font-family="Times,serif" font-size="14.00" fill="#000000">EndAttack</text>
</g>
<!-- RollingDice -->
<g id="node3" class="node">
<title>RollingDice</title>
<path fill="none" stroke="#000000" d="M163.8237,-36C163.8237,-36 102.9519,-36 102.9519,-36 96.9519,-36 90.9519,-30 90.9519,-24 90.9519,-24 90.9519,-12 90.9519,-12 90.9519,-6 96.9519,0 102.9519,0 102.9519,0 163.8237,0 163.8237,0 169.8237,0 175.8237,-6 175.8237,-12 175.8237,-12 175.8237,-24 175.8237,-24 175.8237,-30 169.8237,-36 163.8237,-36"/>
<text text-anchor="middle" x="133.3878" y="-13.8" font-family="Times,serif" font-size="14.00" fill="#000000">RollingDice</text>
</g>
<!-- Battling&#45;&gt;RollingDice -->
<g id="edge2" class="edge">
<title>Battling&#45;&gt;RollingDice</title>
<path fill="none" stroke="#000000" d="M99.3225,-88.7206C103.5266,-83.1667 107.8993,-76.9048 111.3878,-70.8 115.9206,-62.8676 120.0367,-53.8175 123.4503,-45.4775"/>
<polygon fill="#000000" stroke="#000000" points="126.7263,-46.7104 127.1177,-36.1227 120.2092,-44.1554 126.7263,-46.7104"/>
<text text-anchor="middle" x="135.1066" y="-58.2" font-family="Times,serif" font-size="14.00" fill="#000000">Battle</text>
</g>
</g>
</svg>
