<?xml version="1.0" encoding="UTF-8" standalone="no"?>
<!DOCTYPE svg PUBLIC "-//W3C//DTD SVG 1.1//EN"
 "http://www.w3.org/Graphics/SVG/1.1/DTD/svg11.dtd">
<!-- Generated by graphviz version 2.40.1 (20161225.0304)
 -->
<!-- Title: %0 Pages: 1 -->
<svg width="270pt" height="190pt"
 viewBox="0.00 0.00 269.51 190.00" xmlns="http://www.w3.org/2000/svg" xmlns:xlink="http://www.w3.org/1999/xlink">
<g id="graph0" class="graph" transform="scale(1 1) rotate(0) translate(4 186)">
<title>%0</title>
<polygon fill="#ffffff" stroke="transparent" points="-4,4 -4,-186 265.511,-186 265.511,4 -4,4"/>
<!-- TradingCards -->
<g id="node1" class="node">
<title>TradingCards</title>
<path fill="none" stroke="#000000" d="M227.289,-182C227.289,-182 158.3394,-182 158.3394,-182 152.3394,-182 146.3394,-176 146.3394,-170 146.3394,-170 146.3394,-158 146.3394,-158 146.3394,-152 152.3394,-146 158.3394,-146 158.3394,-146 227.289,-146 227.289,-146 233.289,-146 239.289,-152 239.289,-158 239.289,-158 239.289,-170 239.289,-170 239.289,-176 233.289,-182 227.289,-182"/>
<text text-anchor="middle" x="192.8142" y="-159.8" font-family="Times,serif" font-size="14.00" fill="#000000">TradingCards</text>
</g>
<!-- PlacingNewArmies -->
<g id="node2" class="node">
<title>PlacingNewArmies</title>
<path fill="none" stroke="#000000" d="M113.4431,-36C113.4431,-36 12.1853,-36 12.1853,-36 6.1853,-36 .1853,-30 .1853,-24 .1853,-24 .1853,-12 .1853,-12 .1853,-6 6.1853,0 12.1853,0 12.1853,0 113.4431,0 113.4431,0 119.4431,0 125.4431,-6 125.4431,-12 125.4431,-12 125.4431,-24 125.4431,-24 125.4431,-30 119.4431,-36 113.4431,-36"/>
<text text-anchor="middle" x="62.8142" y="-13.8" font-family="Times,serif" font-size="14.00" fill="#000000">PlacingNewArmies</text>
</g>
<!-- TradingCards&#45;&gt;PlacingNewArmies -->
<g id="edge2" class="edge">
<title>TradingCards&#45;&gt;PlacingNewArmies</title>
<path fill="none" stroke="#000000" d="M146.241,-158.0066C116.0211,-151.4363 78.8159,-137.6959 59.6192,-109 47.3254,-90.6229 49.4185,-65.1637 53.8477,-45.8462"/>
<polygon fill="#000000" stroke="#000000" points="57.2518,-46.6626 56.3923,-36.1027 50.479,-44.8938 57.2518,-46.6626"/>
<text text-anchor="middle" x="87.4117" y="-86.8" font-family="Times,serif" font-size="14.00" fill="#000000">EndTrade</text>
</g>
<!-- HasCards -->
<g id="node3" class="node">
<title>HasCards</title>
<polygon fill="none" stroke="#000000" points="192.8142,-109 123.9201,-91 192.8142,-73 261.7083,-91 192.8142,-109"/>
<text text-anchor="middle" x="192.8142" y="-86.8" font-family="Times,serif" font-size="14.00" fill="#000000">HasCards</text>
</g>
<!-- TradingCards&#45;&gt;HasCards -->
<g id="edge1" class="edge">
<title>TradingCards&#45;&gt;HasCards</title>
<path fill="none" stroke="#000000" d="M186.8985,-145.9551C186.061,-137.4883 185.854,-127.2237 186.2776,-117.8683"/>
<polygon fill="#000000" stroke="#000000" points="189.7723,-118.0685 187.0236,-107.8365 182.7915,-117.5493 189.7723,-118.0685"/>
</g>
<!-- HasCards&#45;&gt;TradingCards -->
<g id="edge3" class="edge">
<title>HasCards&#45;&gt;TradingCards</title>
<path fill="none" stroke="#000000" d="M198.6048,-107.8365C199.5028,-116.124 199.7704,-126.3397 199.4075,-135.7762"/>
<polygon fill="#000000" stroke="#000000" points="195.902,-135.7446 198.7299,-145.9551 202.8865,-136.2097 195.902,-135.7446"/>
</g>
<!-- HasCards&#45;&gt;PlacingNewArmies -->
<g id="edge4" class="edge">
<title>HasCards&#45;&gt;PlacingNewArmies</title>
<path fill="none" stroke="#000000" d="M170.7615,-78.6165C152.5523,-68.3914 126.2039,-53.5957 104.0972,-41.182"/>
<polygon fill="#000000" stroke="#000000" points="105.6667,-38.0493 95.2337,-36.2048 102.2393,-44.1528 105.6667,-38.0493"/>
</g>
</g>
</svg>
