<?xml version="1.0" encoding="UTF-8" standalone="no"?>
<!DOCTYPE svg PUBLIC "-//W3C//DTD SVG 1.1//EN"
 "http://www.w3.org/Graphics/SVG/1.1/DTD/svg11.dtd">
<!-- Generated by graphviz version 2.40.1 (20161225.0304)
 -->
<!-- Title: %0 Pages: 1 -->
<svg width="413pt" height="352pt"
 viewBox="0.00 0.00 412.87 351.80" xmlns="http://www.w3.org/2000/svg" xmlns:xlink="http://www.w3.org/1999/xlink">
<g id="graph0" class="graph" transform="scale(1 1) rotate(0) translate(4 347.8)">
<title>%0</title>
<polygon fill="#ffffff" stroke="transparent" points="-4,4 -4,-347.8 408.8709,-347.8 408.8709,4 -4,4"/>
<!-- Fortifying -->
<g id="node1" class="node">
<title>Fortifying</title>
<path fill="none" stroke="#000000" d="M126.3326,-343.8C126.3326,-343.8 77.7807,-343.8 77.7807,-343.8 71.7807,-343.8 65.7807,-337.8 65.7807,-331.8 65.7807,-331.8 65.7807,-319.8 65.7807,-319.8 65.7807,-313.8 71.7807,-307.8 77.7807,-307.8 77.7807,-307.8 126.3326,-307.8 126.3326,-307.8 132.3326,-307.8 138.3326,-313.8 138.3326,-319.8 138.3326,-319.8 138.3326,-331.8 138.3326,-331.8 138.3326,-337.8 132.3326,-343.8 126.3326,-343.8"/>
<text text-anchor="middle" x="102.0567" y="-321.6" font-family="Times,serif" font-size="14.00" fill="#000000">Fortifying</text>
</g>
<!-- HasEarnedCard -->
<g id="node5" class="node">
<title>HasEarnedCard</title>
<polygon fill="none" stroke="#000000" points="102.0567,-255 -.0567,-237 102.0567,-219 204.1701,-237 102.0567,-255"/>
<text text-anchor="middle" x="102.0567" y="-232.8" font-family="Times,serif" font-size="14.00" fill="#000000">HasEarnedCard</text>
</g>
<!-- Fortifying&#45;&gt;HasEarnedCard -->
<g id="edge1" class="edge">
<title>Fortifying&#45;&gt;HasEarnedCard</title>
<path fill="none" stroke="#000000" d="M82.8504,-307.5757C78.5024,-302.3 74.4884,-296.2179 72.1717,-289.8 69.6365,-282.7769 69.6365,-280.0231 72.1717,-273 73.7662,-268.5829 76.1646,-264.3249 78.9225,-260.3793"/>
<polygon fill="#000000" stroke="#000000" points="81.8658,-262.302 85.3619,-252.3006 76.3919,-257.9389 81.8658,-262.302"/>
<text text-anchor="middle" x="92.4992" y="-277.2" font-family="Times,serif" font-size="14.00" fill="#000000">Fortify</text>
</g>
<!-- Fortifying&#45;&gt;HasEarnedCard -->
<g id="edge2" class="edge">
<title>Fortifying&#45;&gt;HasEarnedCard</title>
<path fill="none" stroke="#000000" d="M107.5135,-307.6491C108.9665,-301.9864 110.3325,-295.6826 111.0567,-289.8 111.969,-282.3893 111.969,-280.4107 111.0567,-273 110.7025,-270.1227 110.1947,-267.1445 109.5983,-264.1899"/>
<polygon fill="#000000" stroke="#000000" points="112.9993,-263.3623 107.3235,-254.416 106.1815,-264.9491 112.9993,-263.3623"/>
<text text-anchor="middle" x="136.9396" y="-277.2" font-family="Times,serif" font-size="14.00" fill="#000000">EndTurn</text>
</g>
<!-- DrawingRandomCard -->
<g id="node2" class="node">
<title>DrawingRandomCard</title>
<path fill="none" stroke="#000000" d="M147.6898,-182C147.6898,-182 32.4236,-182 32.4236,-182 26.4236,-182 20.4236,-176 20.4236,-170 20.4236,-170 20.4236,-158 20.4236,-158 20.4236,-152 26.4236,-146 32.4236,-146 32.4236,-146 147.6898,-146 147.6898,-146 153.6898,-146 159.6898,-152 159.6898,-158 159.6898,-158 159.6898,-170 159.6898,-170 159.6898,-176 153.6898,-182 147.6898,-182"/>
<text text-anchor="middle" x="90.0567" y="-159.8" font-family="Times,serif" font-size="14.00" fill="#000000">DrawingRandomCard</text>
</g>
<!-- TradingCards -->
<g id="node3" class="node">
<title>TradingCards</title>
<path fill="none" stroke="#000000" d="M249.5315,-36C249.5315,-36 180.5819,-36 180.5819,-36 174.5819,-36 168.5819,-30 168.5819,-24 168.5819,-24 168.5819,-12 168.5819,-12 168.5819,-6 174.5819,0 180.5819,0 180.5819,0 249.5315,0 249.5315,0 255.5315,0 261.5315,-6 261.5315,-12 261.5315,-12 261.5315,-24 261.5315,-24 261.5315,-30 255.5315,-36 249.5315,-36"/>
<text text-anchor="middle" x="215.0567" y="-13.8" font-family="Times,serif" font-size="14.00" fill="#000000">TradingCards</text>
</g>
<!-- PlacingNewArmies -->
<g id="node4" class="node">
<title>PlacingNewArmies</title>
<path fill="none" stroke="#000000" d="M392.6856,-36C392.6856,-36 291.4277,-36 291.4277,-36 285.4277,-36 279.4277,-30 279.4277,-24 279.4277,-24 279.4277,-12 279.4277,-12 279.4277,-6 285.4277,0 291.4277,0 291.4277,0 392.6856,0 392.6856,0 398.6856,0 404.6856,-6 404.6856,-12 404.6856,-12 404.6856,-24 404.6856,-24 404.6856,-30 398.6856,-36 392.6856,-36"/>
<text text-anchor="middle" x="342.0567" y="-13.8" font-family="Times,serif" font-size="14.00" fill="#000000">PlacingNewArmies</text>
</g>
<!-- HasEarnedCard&#45;&gt;DrawingRandomCard -->
<g id="edge3" class="edge">
<title>HasEarnedCard&#45;&gt;DrawingRandomCard</title>
<path fill="none" stroke="#000000" d="M99.1518,-219.3287C97.8012,-211.1123 96.1624,-201.1429 94.6499,-191.9424"/>
<polygon fill="#000000" stroke="#000000" points="98.094,-191.3155 93.0182,-182.0157 91.1867,-192.451 98.094,-191.3155"/>
</g>
<!-- SetupNextTurn -->
<g id="node6" class="node">
<title>SetupNextTurn</title>
<polygon fill="none" stroke="#000000" points="278.0567,-182 178.4443,-164 278.0567,-146 377.6691,-164 278.0567,-182"/>
<text text-anchor="middle" x="278.0567" y="-159.8" font-family="Times,serif" font-size="14.00" fill="#000000">SetupNextTurn</text>
</g>
<!-- HasEarnedCard&#45;&gt;SetupNextTurn -->
<g id="edge4" class="edge">
<title>HasEarnedCard&#45;&gt;SetupNextTurn</title>
<path fill="none" stroke="#000000" d="M132.7135,-224.2844C161.9887,-212.1418 206.2605,-193.7791 238.2484,-180.5114"/>
<polygon fill="#000000" stroke="#000000" points="239.8551,-183.6342 247.7511,-176.5699 237.1732,-177.1683 239.8551,-183.6342"/>
</g>
<!-- HasCards -->
<g id="node7" class="node">
<title>HasCards</title>
<polygon fill="none" stroke="#000000" points="278.0567,-109 209.1626,-91 278.0567,-73 346.9508,-91 278.0567,-109"/>
<text text-anchor="middle" x="278.0567" y="-86.8" font-family="Times,serif" font-size="14.00" fill="#000000">HasCards</text>
</g>
<!-- SetupNextTurn&#45;&gt;HasCards -->
<g id="edge5" class="edge">
<title>SetupNextTurn&#45;&gt;HasCards</title>
<path fill="none" stroke="#000000" d="M278.0567,-145.9551C278.0567,-137.8828 278.0567,-128.1764 278.0567,-119.1817"/>
<polygon fill="#000000" stroke="#000000" points="281.5568,-119.0903 278.0567,-109.0904 274.5568,-119.0904 281.5568,-119.0903"/>
</g>
<!-- HasCards&#45;&gt;TradingCards -->
<g id="edge6" class="edge">
<title>HasCards&#45;&gt;TradingCards</title>
<path fill="none" stroke="#000000" d="M265.3077,-76.2274C257.2645,-66.9075 246.6569,-54.6161 237.2612,-43.7291"/>
<polygon fill="#000000" stroke="#000000" points="239.8711,-41.3962 230.6879,-36.1123 234.5717,-45.9697 239.8711,-41.3962"/>
</g>
<!-- HasCards&#45;&gt;PlacingNewArmies -->
<g id="edge7" class="edge">
<title>HasCards&#45;&gt;PlacingNewArmies</title>
<path fill="none" stroke="#000000" d="M291.008,-76.2274C299.1789,-66.9075 309.9548,-54.6161 319.4997,-43.7291"/>
<polygon fill="#000000" stroke="#000000" points="322.2168,-45.9391 326.1774,-36.1123 316.9532,-41.3244 322.2168,-45.9391"/>
</g>
</g>
</svg>
