<?xml version="1.0" encoding="UTF-8" standalone="no"?>
<!DOCTYPE svg PUBLIC "-//W3C//DTD SVG 1.1//EN"
 "http://www.w3.org/Graphics/SVG/1.1/DTD/svg11.dtd">
<!-- Generated by graphviz version 2.40.1 (20161225.0304)
 -->
<!-- Title: %0 Pages: 1 -->
<svg width="409pt" height="352pt"
 viewBox="0.00 0.00 409.40 351.80" xmlns="http://www.w3.org/2000/svg" xmlns:xlink="http://www.w3.org/1999/xlink">
<g id="graph0" class="graph" transform="scale(1 1) rotate(0) translate(4 347.8)">
<title>%0</title>
<polygon fill="#ffffff" stroke="transparent" points="-4,4 -4,-347.8 405.3985,-347.8 405.3985,4 -4,4"/>
<!-- OccupyingTerritory -->
<g id="node1" class="node">
<title>OccupyingTerritory</title>
<path fill="none" stroke="#000000" d="M295.444,-343.8C295.444,-343.8 191.5308,-343.8 191.5308,-343.8 185.5308,-343.8 179.5308,-337.8 179.5308,-331.8 179.5308,-331.8 179.5308,-319.8 179.5308,-319.8 179.5308,-313.8 185.5308,-307.8 191.5308,-307.8 191.5308,-307.8 295.444,-307.8 295.444,-307.8 301.444,-307.8 307.444,-313.8 307.444,-319.8 307.444,-319.8 307.444,-331.8 307.444,-331.8 307.444,-337.8 301.444,-343.8 295.444,-343.8"/>
<text text-anchor="middle" x="243.4874" y="-321.6" font-family="Times,serif" font-size="14.00" fill="#000000">OccupyingTerritory</text>
</g>
<!-- HasPlacedArmies -->
<g id="node5" class="node">
<title>HasPlacedArmies</title>
<polygon fill="none" stroke="#000000" points="173.4874,-255 60.1051,-237 173.4874,-219 286.8697,-237 173.4874,-255"/>
<text text-anchor="middle" x="173.4874" y="-232.8" font-family="Times,serif" font-size="14.00" fill="#000000">HasPlacedArmies</text>
</g>
<!-- OccupyingTerritory&#45;&gt;HasPlacedArmies -->
<g id="edge1" class="edge">
<title>OccupyingTerritory&#45;&gt;HasPlacedArmies</title>
<path fill="none" stroke="#000000" d="M222.9539,-307.5752C217.3069,-302.1179 211.3781,-295.944 206.4214,-289.8 199.6749,-281.4375 193.1998,-271.6037 187.8034,-262.7039"/>
<polygon fill="#000000" stroke="#000000" points="190.6922,-260.7117 182.6041,-253.8682 184.6592,-264.2618 190.6922,-260.7117"/>
<text text-anchor="middle" x="252.5204" y="-277.2" font-family="Times,serif" font-size="14.00" fill="#000000">OccupyTerritory</text>
</g>
<!-- PlacingAdditionalArmy -->
<g id="node2" class="node">
<title>PlacingAdditionalArmy</title>
<path fill="none" stroke="#000000" d="M377.5225,-109C377.5225,-109 251.4523,-109 251.4523,-109 245.4523,-109 239.4523,-103 239.4523,-97 239.4523,-97 239.4523,-85 239.4523,-85 239.4523,-79 245.4523,-73 251.4523,-73 251.4523,-73 377.5225,-73 377.5225,-73 383.5225,-73 389.5225,-79 389.5225,-85 389.5225,-85 389.5225,-97 389.5225,-97 389.5225,-103 383.5225,-109 377.5225,-109"/>
<text text-anchor="middle" x="314.4874" y="-86.8" font-family="Times,serif" font-size="14.00" fill="#000000">PlacingAdditionalArmy</text>
</g>
<!-- TradingCards -->
<g id="node3" class="node">
<title>TradingCards</title>
<path fill="none" stroke="#000000" d="M80.9622,-36C80.9622,-36 12.0126,-36 12.0126,-36 6.0126,-36 .0126,-30 .0126,-24 .0126,-24 .0126,-12 .0126,-12 .0126,-6 6.0126,0 12.0126,0 12.0126,0 80.9622,0 80.9622,0 86.9622,0 92.9622,-6 92.9622,-12 92.9622,-12 92.9622,-24 92.9622,-24 92.9622,-30 86.9622,-36 80.9622,-36"/>
<text text-anchor="middle" x="46.4874" y="-13.8" font-family="Times,serif" font-size="14.00" fill="#000000">TradingCards</text>
</g>
<!-- PlacingNewArmies -->
<g id="node4" class="node">
<title>PlacingNewArmies</title>
<path fill="none" stroke="#000000" d="M224.1163,-36C224.1163,-36 122.8585,-36 122.8585,-36 116.8585,-36 110.8585,-30 110.8585,-24 110.8585,-24 110.8585,-12 110.8585,-12 110.8585,-6 116.8585,0 122.8585,0 122.8585,0 224.1163,0 224.1163,0 230.1163,0 236.1163,-6 236.1163,-12 236.1163,-12 236.1163,-24 236.1163,-24 236.1163,-30 230.1163,-36 224.1163,-36"/>
<text text-anchor="middle" x="173.4874" y="-13.8" font-family="Times,serif" font-size="14.00" fill="#000000">PlacingNewArmies</text>
</g>
<!-- InitialChoice -->
<g id="node6" class="node">
<title>InitialChoice</title>
<polygon fill="none" stroke="#000000" points="314.4874,-182 227.6651,-164 314.4874,-146 401.3097,-164 314.4874,-182"/>
<text text-anchor="middle" x="314.4874" y="-159.8" font-family="Times,serif" font-size="14.00" fill="#000000">InitialChoice</text>
</g>
<!-- HasPlacedArmies&#45;&gt;InitialChoice -->
<g id="edge2" class="edge">
<title>HasPlacedArmies&#45;&gt;InitialChoice</title>
<path fill="none" stroke="#000000" d="M200.3403,-223.0974C223.1542,-211.286 256.0216,-194.2695 280.6346,-181.5266"/>
<polygon fill="#000000" stroke="#000000" points="282.3543,-184.5776 289.6255,-176.8718 279.1359,-178.3613 282.3543,-184.5776"/>
</g>
<!-- SetupNextTurn -->
<g id="node7" class="node">
<title>SetupNextTurn</title>
<polygon fill="none" stroke="#000000" points="109.4874,-182 9.875,-164 109.4874,-146 209.0998,-164 109.4874,-182"/>
<text text-anchor="middle" x="109.4874" y="-159.8" font-family="Times,serif" font-size="14.00" fill="#000000">SetupNextTurn</text>
</g>
<!-- HasPlacedArmies&#45;&gt;SetupNextTurn -->
<g id="edge3" class="edge">
<title>HasPlacedArmies&#45;&gt;SetupNextTurn</title>
<path fill="none" stroke="#000000" d="M159.6004,-221.1601C150.9029,-211.2396 139.5437,-198.2829 129.8394,-187.214"/>
<polygon fill="#000000" stroke="#000000" points="132.3516,-184.7703 123.1275,-179.5582 127.0881,-189.385 132.3516,-184.7703"/>
</g>
<!-- InitialChoice&#45;&gt;OccupyingTerritory -->
<g id="edge4" class="edge">
<title>InitialChoice&#45;&gt;OccupyingTerritory</title>
<path fill="none" stroke="#000000" d="M317.0663,-181.8132C319.8674,-207.6973 321.4703,-256.2689 300.4874,-289.8 297.87,-293.9826 294.569,-297.764 290.8804,-301.1627"/>
<polygon fill="#000000" stroke="#000000" points="288.4625,-298.6156 282.8598,-307.6078 292.8473,-304.0722 288.4625,-298.6156"/>
</g>
<!-- InitialChoice&#45;&gt;PlacingAdditionalArmy -->
<g id="edge5" class="edge">
<title>InitialChoice&#45;&gt;PlacingAdditionalArmy</title>
<path fill="none" stroke="#000000" d="M314.4874,-145.9551C314.4874,-137.8828 314.4874,-128.1764 314.4874,-119.1817"/>
<polygon fill="#000000" stroke="#000000" points="317.9875,-119.0903 314.4874,-109.0904 310.9875,-119.0904 317.9875,-119.0903"/>
</g>
<!-- HasCards -->
<g id="node8" class="node">
<title>HasCards</title>
<polygon fill="none" stroke="#000000" points="109.4874,-109 40.5933,-91 109.4874,-73 178.3815,-91 109.4874,-109"/>
<text text-anchor="middle" x="109.4874" y="-86.8" font-family="Times,serif" font-size="14.00" fill="#000000">HasCards</text>
</g>
<!-- SetupNextTurn&#45;&gt;HasCards -->
<g id="edge6" class="edge">
<title>SetupNextTurn&#45;&gt;HasCards</title>
<path fill="none" stroke="#000000" d="M109.4874,-145.9551C109.4874,-137.8828 109.4874,-128.1764 109.4874,-119.1817"/>
<polygon fill="#000000" stroke="#000000" points="112.9875,-119.0903 109.4874,-109.0904 105.9875,-119.0904 112.9875,-119.0903"/>
</g>
<!-- HasCards&#45;&gt;TradingCards -->
<g id="edge7" class="edge">
<title>HasCards&#45;&gt;TradingCards</title>
<path fill="none" stroke="#000000" d="M96.7384,-76.2274C88.6952,-66.9075 78.0876,-54.6161 68.6919,-43.7291"/>
<polygon fill="#000000" stroke="#000000" points="71.3018,-41.3962 62.1186,-36.1123 66.0024,-45.9697 71.3018,-41.3962"/>
</g>
<!-- HasCards&#45;&gt;PlacingNewArmies -->
<g id="edge8" class="edge">
<title>HasCards&#45;&gt;PlacingNewArmies</title>
<path fill="none" stroke="#000000" d="M122.4388,-76.2274C130.6096,-66.9075 141.3856,-54.6161 150.9304,-43.7291"/>
<polygon fill="#000000" stroke="#000000" points="153.6475,-45.9391 157.6081,-36.1123 148.3839,-41.3244 153.6475,-45.9391"/>
</g>
</g>
</svg>
