<?xml version="1.0" encoding="UTF-8" standalone="no"?>
<!DOCTYPE svg PUBLIC "-//W3C//DTD SVG 1.1//EN"
 "http://www.w3.org/Graphics/SVG/1.1/DTD/svg11.dtd">
<!-- Generated by graphviz version 2.40.1 (20161225.0304)
 -->
<!-- Title: %0 Pages: 1 -->
<svg width="296pt" height="206pt"
 viewBox="0.00 0.00 295.58 205.80" xmlns="http://www.w3.org/2000/svg" xmlns:xlink="http://www.w3.org/1999/xlink">
<g id="graph0" class="graph" transform="scale(1 1) rotate(0) translate(4 201.8)">
<title>%0</title>
<polygon fill="#ffffff" stroke="transparent" points="-4,4 -4,-201.8 291.5766,-201.8 291.5766,4 -4,4"/>
<!-- PlacingNewArmies -->
<g id="node1" class="node">
<title>PlacingNewArmies</title>
<path fill="none" stroke="#000000" d="M194.4173,-197.8C194.4173,-197.8 93.1594,-197.8 93.1594,-197.8 87.1594,-197.8 81.1594,-191.8 81.1594,-185.8 81.1594,-185.8 81.1594,-173.8 81.1594,-173.8 81.1594,-167.8 87.1594,-161.8 93.1594,-161.8 93.1594,-161.8 194.4173,-161.8 194.4173,-161.8 200.4173,-161.8 206.4173,-167.8 206.4173,-173.8 206.4173,-173.8 206.4173,-185.8 206.4173,-185.8 206.4173,-191.8 200.4173,-197.8 194.4173,-197.8"/>
<text text-anchor="middle" x="143.7883" y="-175.6" font-family="Times,serif" font-size="14.00" fill="#000000">PlacingNewArmies</text>
</g>
<!-- HasUndeployedArmies -->
<g id="node3" class="node">
<title>HasUndeployedArmies</title>
<polygon fill="none" stroke="#000000" points="143.7883,-109 .2114,-91 143.7883,-73 287.3653,-91 143.7883,-109"/>
<text text-anchor="middle" x="143.7883" y="-86.8" font-family="Times,serif" font-size="14.00" fill="#000000">HasUndeployedArmies</text>
</g>
<!-- PlacingNewArmies&#45;&gt;HasUndeployedArmies -->
<g id="edge1" class="edge">
<title>PlacingNewArmies&#45;&gt;HasUndeployedArmies</title>
<path fill="none" stroke="#000000" d="M105.2033,-161.7327C98.6268,-156.8658 92.6856,-150.9242 88.8359,-143.8 81.9737,-131.1008 90.9414,-119.6359 103.4927,-110.6598"/>
<polygon fill="#000000" stroke="#000000" points="105.5922,-113.4715 112.1278,-105.1326 101.8185,-107.5758 105.5922,-113.4715"/>
<text text-anchor="middle" x="138.7645" y="-131.2" font-family="Times,serif" font-size="14.00" fill="#000000">PlaceNewArmies</text>
</g>
<!-- Battling -->
<g id="node2" class="node">
<title>Battling</title>
<path fill="none" stroke="#000000" d="M162.402,-36C162.402,-36 125.1746,-36 125.1746,-36 119.1746,-36 113.1746,-30 113.1746,-24 113.1746,-24 113.1746,-12 113.1746,-12 113.1746,-6 119.1746,0 125.1746,0 125.1746,0 162.402,0 162.402,0 168.402,0 174.402,-6 174.402,-12 174.402,-12 174.402,-24 174.402,-24 174.402,-30 168.402,-36 162.402,-36"/>
<text text-anchor="middle" x="143.7883" y="-13.8" font-family="Times,serif" font-size="14.00" fill="#000000">Battling</text>
</g>
<!-- HasUndeployedArmies&#45;&gt;PlacingNewArmies -->
<g id="edge2" class="edge">
<title>HasUndeployedArmies&#45;&gt;PlacingNewArmies</title>
<path fill="none" stroke="#000000" d="M168.6366,-105.9876C181.575,-115.8588 193.4411,-129.5537 186.7883,-143.8 184.9809,-147.6705 182.5299,-151.2718 179.7091,-154.5823"/>
<polygon fill="#000000" stroke="#000000" points="177.139,-152.2034 172.5848,-161.7695 182.1105,-157.1314 177.139,-152.2034"/>
</g>
<!-- HasUndeployedArmies&#45;&gt;Battling -->
<g id="edge3" class="edge">
<title>HasUndeployedArmies&#45;&gt;Battling</title>
<path fill="none" stroke="#000000" d="M143.7883,-72.9551C143.7883,-64.8828 143.7883,-55.1764 143.7883,-46.1817"/>
<polygon fill="#000000" stroke="#000000" points="147.2884,-46.0903 143.7883,-36.0904 140.2884,-46.0904 147.2884,-46.0903"/>
</g>
</g>
</svg>
