<?xml version="1.0" encoding="UTF-8" standalone="no"?>
<!DOCTYPE svg PUBLIC "-//W3C//DTD SVG 1.1//EN"
 "http://www.w3.org/Graphics/SVG/1.1/DTD/svg11.dtd">
<!-- Generated by graphviz version 2.40.1 (20161225.0304)
 -->
<!-- Title: %0 Pages: 1 -->
<svg width="279pt" height="206pt"
 viewBox="0.00 0.00 278.82 205.80" xmlns="http://www.w3.org/2000/svg" xmlns:xlink="http://www.w3.org/1999/xlink">
<g id="graph0" class="graph" transform="scale(1 1) rotate(0) translate(4 201.8)">
<title>%0</title>
<polygon fill="#ffffff" stroke="transparent" points="-4,4 -4,-201.8 274.8222,-201.8 274.8222,4 -4,4"/>
<!-- RollingDice -->
<g id="node1" class="node">
<title>RollingDice</title>
<path fill="none" stroke="#000000" d="M165.847,-197.8C165.847,-197.8 104.9752,-197.8 104.9752,-197.8 98.9752,-197.8 92.9752,-191.8 92.9752,-185.8 92.9752,-185.8 92.9752,-173.8 92.9752,-173.8 92.9752,-167.8 98.9752,-161.8 104.9752,-161.8 104.9752,-161.8 165.847,-161.8 165.847,-161.8 171.847,-161.8 177.847,-167.8 177.847,-173.8 177.847,-173.8 177.847,-185.8 177.847,-185.8 177.847,-191.8 171.847,-197.8 165.847,-197.8"/>
<text text-anchor="middle" x="135.4111" y="-175.6" font-family="Times,serif" font-size="14.00" fill="#000000">RollingDice</text>
</g>
<!-- HasDefeatedTerritory -->
<g id="node4" class="node">
<title>HasDefeatedTerritory</title>
<polygon fill="none" stroke="#000000" points="135.4111,-109 .0888,-91 135.4111,-73 270.7334,-91 135.4111,-109"/>
<text text-anchor="middle" x="135.4111" y="-86.8" font-family="Times,serif" font-size="14.00" fill="#000000">HasDefeatedTerritory</text>
</g>
<!-- RollingDice&#45;&gt;HasDefeatedTerritory -->
<g id="edge1" class="edge">
<title>RollingDice&#45;&gt;HasDefeatedTerritory</title>
<path fill="none" stroke="#000000" d="M135.4111,-161.4006C135.4111,-149.2949 135.4111,-133.2076 135.4111,-119.4674"/>
<polygon fill="#000000" stroke="#000000" points="138.9112,-119.072 135.4111,-109.072 131.9112,-119.0721 138.9112,-119.072"/>
<text text-anchor="middle" x="160.6832" y="-131.2" font-family="Times,serif" font-size="14.00" fill="#000000">RollDice</text>
</g>
<!-- Battling -->
<g id="node2" class="node">
<title>Battling</title>
<path fill="none" stroke="#000000" d="M112.0248,-36C112.0248,-36 74.7974,-36 74.7974,-36 68.7974,-36 62.7974,-30 62.7974,-24 62.7974,-24 62.7974,-12 62.7974,-12 62.7974,-6 68.7974,0 74.7974,0 74.7974,0 112.0248,0 112.0248,0 118.0248,0 124.0248,-6 124.0248,-12 124.0248,-12 124.0248,-24 124.0248,-24 124.0248,-30 118.0248,-36 112.0248,-36"/>
<text text-anchor="middle" x="93.4111" y="-13.8" font-family="Times,serif" font-size="14.00" fill="#000000">Battling</text>
</g>
<!-- Capturing -->
<g id="node3" class="node">
<title>Capturing</title>
<path fill="none" stroke="#000000" d="M202.4041,-36C202.4041,-36 154.4181,-36 154.4181,-36 148.4181,-36 142.4181,-30 142.4181,-24 142.4181,-24 142.4181,-12 142.4181,-12 142.4181,-6 148.4181,0 154.4181,0 154.4181,0 202.4041,0 202.4041,0 208.4041,0 214.4041,-6 214.4041,-12 214.4041,-12 214.4041,-24 214.4041,-24 214.4041,-30 208.4041,-36 202.4041,-36"/>
<text text-anchor="middle" x="178.4111" y="-13.8" font-family="Times,serif" font-size="14.00" fill="#000000">Capturing</text>
</g>
<!-- HasDefeatedTerritory&#45;&gt;Battling -->
<g id="edge2" class="edge">
<title>HasDefeatedTerritory&#45;&gt;Battling</title>
<path fill="none" stroke="#000000" d="M125.6699,-74.0688C120.7116,-65.4509 114.5645,-54.7666 108.9705,-45.0437"/>
<polygon fill="#000000" stroke="#000000" points="111.8543,-43.0376 103.8336,-36.1153 105.7869,-46.5285 111.8543,-43.0376"/>
</g>
<!-- HasDefeatedTerritory&#45;&gt;Capturing -->
<g id="edge3" class="edge">
<title>HasDefeatedTerritory&#45;&gt;Capturing</title>
<path fill="none" stroke="#000000" d="M145.3843,-74.0688C150.5129,-65.3621 156.884,-54.5461 162.6582,-44.7433"/>
<polygon fill="#000000" stroke="#000000" points="165.6808,-46.508 167.7405,-36.1153 159.6494,-42.9552 165.6808,-46.508"/>
</g>
</g>
</svg>
