<?xml version="1.0" encoding="UTF-8" standalone="no"?>
<!DOCTYPE svg PUBLIC "-//W3C//DTD SVG 1.1//EN"
 "http://www.w3.org/Graphics/SVG/1.1/DTD/svg11.dtd">
<!-- Generated by graphviz version 2.40.1 (20161225.0304)
 -->
<!-- Title: %0 Pages: 1 -->
<svg width="304pt" height="206pt"
 viewBox="0.00 0.00 304.25 205.80" xmlns="http://www.w3.org/2000/svg" xmlns:xlink="http://www.w3.org/1999/xlink">
<g id="graph0" class="graph" transform="scale(1 1) rotate(0) translate(4 201.8)">
<title>%0</title>
<polygon fill="#ffffff" stroke="transparent" points="-4,4 -4,-201.8 300.2455,-201.8 300.2455,4 -4,4"/>
<!-- SelectingFirstPlayer -->
<g id="node1" class="node">
<title>SelectingFirstPlayer</title>
<path fill="none" stroke="#000000" d="M194.5093,-197.8C194.5093,-197.8 89.4473,-197.8 89.4473,-197.8 83.4473,-197.8 77.4473,-191.8 77.4473,-185.8 77.4473,-185.8 77.4473,-173.8 77.4473,-173.8 77.4473,-167.8 83.4473,-161.8 89.4473,-161.8 89.4473,-161.8 194.5093,-161.8 194.5093,-161.8 200.5093,-161.8 206.5093,-167.8 206.5093,-173.8 206.5093,-173.8 206.5093,-185.8 206.5093,-185.8 206.5093,-191.8 200.5093,-197.8 194.5093,-197.8"/>
<text text-anchor="middle" x="141.9783" y="-175.6" font-family="Times,serif" font-size="14.00" fill="#000000">SelectingFirstPlayer</text>
</g>
<!-- InitialChoice -->
<g id="node4" class="node">
<title>InitialChoice</title>
<polygon fill="none" stroke="#000000" points="141.9783,-109 55.156,-91 141.9783,-73 228.8006,-91 141.9783,-109"/>
<text text-anchor="middle" x="141.9783" y="-86.8" font-family="Times,serif" font-size="14.00" fill="#000000">InitialChoice</text>
</g>
<!-- SelectingFirstPlayer&#45;&gt;InitialChoice -->
<g id="edge1" class="edge">
<title>SelectingFirstPlayer&#45;&gt;InitialChoice</title>
<path fill="none" stroke="#000000" d="M141.9783,-161.4006C141.9783,-149.2949 141.9783,-133.2076 141.9783,-119.4674"/>
<polygon fill="#000000" stroke="#000000" points="145.4784,-119.072 141.9783,-109.072 138.4784,-119.0721 145.4784,-119.072"/>
<text text-anchor="middle" x="189.7981" y="-131.2" font-family="Times,serif" font-size="14.00" fill="#000000">SelectFirstPlayer</text>
</g>
<!-- OccupyingTerritory -->
<g id="node2" class="node">
<title>OccupyingTerritory</title>
<path fill="none" stroke="#000000" d="M115.9349,-36C115.9349,-36 12.0217,-36 12.0217,-36 6.0217,-36 .0217,-30 .0217,-24 .0217,-24 .0217,-12 .0217,-12 .0217,-6 6.0217,0 12.0217,0 12.0217,0 115.9349,0 115.9349,0 121.9349,0 127.9349,-6 127.9349,-12 127.9349,-12 127.9349,-24 127.9349,-24 127.9349,-30 121.9349,-36 115.9349,-36"/>
<text text-anchor="middle" x="63.9783" y="-13.8" font-family="Times,serif" font-size="14.00" fill="#000000">OccupyingTerritory</text>
</g>
<!-- PlacingAdditionalArmy -->
<g id="node3" class="node">
<title>PlacingAdditionalArmy</title>
<path fill="none" stroke="#000000" d="M284.0134,-36C284.0134,-36 157.9432,-36 157.9432,-36 151.9432,-36 145.9432,-30 145.9432,-24 145.9432,-24 145.9432,-12 145.9432,-12 145.9432,-6 151.9432,0 157.9432,0 157.9432,0 284.0134,0 284.0134,0 290.0134,0 296.0134,-6 296.0134,-12 296.0134,-12 296.0134,-24 296.0134,-24 296.0134,-30 290.0134,-36 284.0134,-36"/>
<text text-anchor="middle" x="220.9783" y="-13.8" font-family="Times,serif" font-size="14.00" fill="#000000">PlacingAdditionalArmy</text>
</g>
<!-- InitialChoice&#45;&gt;OccupyingTerritory -->
<g id="edge2" class="edge">
<title>InitialChoice&#45;&gt;OccupyingTerritory</title>
<path fill="none" stroke="#000000" d="M126.1938,-76.2274C116.0423,-66.7265 102.5912,-54.1377 90.7937,-43.0965"/>
<polygon fill="#000000" stroke="#000000" points="93.0241,-40.3901 83.3312,-36.1123 88.2408,-45.501 93.0241,-40.3901"/>
</g>
<!-- InitialChoice&#45;&gt;PlacingAdditionalArmy -->
<g id="edge3" class="edge">
<title>InitialChoice&#45;&gt;PlacingAdditionalArmy</title>
<path fill="none" stroke="#000000" d="M157.9651,-76.2274C168.2469,-66.7265 181.8704,-54.1377 193.8191,-43.0965"/>
<polygon fill="#000000" stroke="#000000" points="196.4081,-45.4696 201.3773,-36.1123 191.6574,-40.3285 196.4081,-45.4696"/>
</g>
</g>
</svg>
