<?xml version="1.0" encoding="UTF-8" standalone="no"?>
<!DOCTYPE svg PUBLIC "-//W3C//DTD SVG 1.1//EN"
 "http://www.w3.org/Graphics/SVG/1.1/DTD/svg11.dtd">
<!-- Generated by graphviz version 2.40.1 (20161225.0304)
 -->
<!-- Title: %0 Pages: 1 -->
<svg width="138pt" height="133pt"
 viewBox="0.00 0.00 137.53 132.80" xmlns="http://www.w3.org/2000/svg" xmlns:xlink="http://www.w3.org/1999/xlink">
<g id="graph0" class="graph" transform="scale(1 1) rotate(0) translate(4 128.8)">
<title>%0</title>
<polygon fill="#ffffff" stroke="transparent" points="-4,4 -4,-128.8 133.5302,-128.8 133.5302,4 -4,4"/>
<!-- Initializing -->
<g id="node1" class="node">
<title>Initializing</title>
<path fill="none" stroke="#000000" d="M91.6997,-124.8C91.6997,-124.8 37.8305,-124.8 37.8305,-124.8 31.8305,-124.8 25.8305,-118.8 25.8305,-112.8 25.8305,-112.8 25.8305,-100.8 25.8305,-100.8 25.8305,-94.8 31.8305,-88.8 37.8305,-88.8 37.8305,-88.8 91.6997,-88.8 91.6997,-88.8 97.6997,-88.8 103.6997,-94.8 103.6997,-100.8 103.6997,-100.8 103.6997,-112.8 103.6997,-112.8 103.6997,-118.8 97.6997,-124.8 91.6997,-124.8"/>
<text text-anchor="middle" x="64.7651" y="-102.6" font-family="Times,serif" font-size="14.00" fill="#000000">Initializing</text>
</g>
<!-- SelectingFirstPlayer -->
<g id="node2" class="node">
<title>SelectingFirstPlayer</title>
<path fill="none" stroke="#000000" d="M117.2961,-36C117.2961,-36 12.2341,-36 12.2341,-36 6.2341,-36 .2341,-30 .2341,-24 .2341,-24 .2341,-12 .2341,-12 .2341,-6 6.2341,0 12.2341,0 12.2341,0 117.2961,0 117.2961,0 123.2961,0 129.2961,-6 129.2961,-12 129.2961,-12 129.2961,-24 129.2961,-24 129.2961,-30 123.2961,-36 117.2961,-36"/>
<text text-anchor="middle" x="64.7651" y="-13.8" font-family="Times,serif" font-size="14.00" fill="#000000">SelectingFirstPlayer</text>
</g>
<!-- Initializing&#45;&gt;SelectingFirstPlayer -->
<g id="edge1" class="edge">
<title>Initializing&#45;&gt;SelectingFirstPlayer</title>
<path fill="none" stroke="#000000" d="M64.7651,-88.4006C64.7651,-76.2949 64.7651,-60.2076 64.7651,-46.4674"/>
<polygon fill="#000000" stroke="#000000" points="68.2652,-46.072 64.7651,-36.072 61.2652,-46.0721 68.2652,-46.072"/>
<text text-anchor="middle" x="95.8668" y="-58.2" font-family="Times,serif" font-size="14.00" fill="#000000">StartMatch</text>
</g>
</g>
</svg>
