<?xml version="1.0" encoding="UTF-8" standalone="no"?>
<!DOCTYPE svg PUBLIC "-//W3C//DTD SVG 1.1//EN"
 "http://www.w3.org/Graphics/SVG/1.1/DTD/svg11.dtd">
<!-- Generated by graphviz version 2.38.0 (20140413.2041)
 -->
<!-- Title: %3 Pages: 1 -->
<svg width="754pt" height="1281pt"
 viewBox="0.00 0.00 753.96 1281.20" xmlns="http://www.w3.org/2000/svg" xmlns:xlink="http://www.w3.org/1999/xlink">
<g id="graph0" class="graph" transform="scale(1 1) rotate(0) translate(4 1277.2)">
<title>%3</title>
<polygon fill="white" stroke="none" points="-4,4 -4,-1277.2 749.956,-1277.2 749.956,4 -4,4"/>
<!-- Initializing -->
<g id="node1" class="node"><title>Initializing</title>
<path fill="none" stroke="black" d="M247.913,-1273.2C247.913,-1273.2 194.044,-1273.2 194.044,-1273.2 188.044,-1273.2 182.044,-1267.2 182.044,-1261.2 182.044,-1261.2 182.044,-1249.2 182.044,-1249.2 182.044,-1243.2 188.044,-1237.2 194.044,-1237.2 194.044,-1237.2 247.913,-1237.2 247.913,-1237.2 253.913,-1237.2 259.913,-1243.2 259.913,-1249.2 259.913,-1249.2 259.913,-1261.2 259.913,-1261.2 259.913,-1267.2 253.913,-1273.2 247.913,-1273.2"/>
<text text-anchor="middle" x="220.978" y="-1251" font-family="Times,serif" font-size="14.00">Initializing</text>
</g>
<!-- SelectingFirstPlayer -->
<g id="node2" class="node"><title>SelectingFirstPlayer</title>
<path fill="none" stroke="black" d="M273.509,-1184.4C273.509,-1184.4 168.447,-1184.4 168.447,-1184.4 162.447,-1184.4 156.447,-1178.4 156.447,-1172.4 156.447,-1172.4 156.447,-1160.4 156.447,-1160.4 156.447,-1154.4 162.447,-1148.4 168.447,-1148.4 168.447,-1148.4 273.509,-1148.4 273.509,-1148.4 279.509,-1148.4 285.509,-1154.4 285.509,-1160.4 285.509,-1160.4 285.509,-1172.4 285.509,-1172.4 285.509,-1178.4 279.509,-1184.4 273.509,-1184.4"/>
<text text-anchor="middle" x="220.978" y="-1162.2" font-family="Times,serif" font-size="14.00">SelectingFirstPlayer</text>
</g>
<!-- Initializing&#45;&gt;SelectingFirstPlayer -->
<g id="edge1" class="edge"><title>Initializing&#45;&gt;SelectingFirstPlayer</title>
<path fill="none" stroke="black" d="M220.978,-1237.05C220.978,-1224.92 220.978,-1208.42 220.978,-1194.52"/>
<polygon fill="black" stroke="black" points="224.478,-1194.51 220.978,-1184.51 217.478,-1194.51 224.478,-1194.51"/>
<text text-anchor="middle" x="252.08" y="-1206.6" font-family="Times,serif" font-size="14.00">StartMatch</text>
</g>
<!-- InitialChoice -->
<g id="node12" class="node"><title>InitialChoice</title>
<polygon fill="none" stroke="black" points="220.978,-1095.6 134.156,-1077.6 220.978,-1059.6 307.801,-1077.6 220.978,-1095.6"/>
<text text-anchor="middle" x="220.978" y="-1073.4" font-family="Times,serif" font-size="14.00">InitialChoice</text>
</g>
<!-- SelectingFirstPlayer&#45;&gt;InitialChoice -->
<g id="edge2" class="edge"><title>SelectingFirstPlayer&#45;&gt;InitialChoice</title>
<path fill="none" stroke="black" d="M220.978,-1148.25C220.978,-1136.12 220.978,-1119.62 220.978,-1105.72"/>
<polygon fill="black" stroke="black" points="224.478,-1105.71 220.978,-1095.71 217.478,-1105.71 224.478,-1105.71"/>
<text text-anchor="middle" x="268.798" y="-1117.8" font-family="Times,serif" font-size="14.00">SelectFirstPlayer</text>
</g>
<!-- OccupyingTerritory -->
<g id="node3" class="node"><title>OccupyingTerritory</title>
<path fill="none" stroke="black" d="M115.935,-1022.6C115.935,-1022.6 12.0217,-1022.6 12.0217,-1022.6 6.02169,-1022.6 0.0216926,-1016.6 0.0216926,-1010.6 0.0216926,-1010.6 0.0216926,-998.6 0.0216926,-998.6 0.0216926,-992.6 6.02169,-986.6 12.0217,-986.6 12.0217,-986.6 115.935,-986.6 115.935,-986.6 121.935,-986.6 127.935,-992.6 127.935,-998.6 127.935,-998.6 127.935,-1010.6 127.935,-1010.6 127.935,-1016.6 121.935,-1022.6 115.935,-1022.6"/>
<text text-anchor="middle" x="63.9783" y="-1000.4" font-family="Times,serif" font-size="14.00">OccupyingTerritory</text>
</g>
<!-- HasPlacedArmies -->
<g id="node14" class="node"><title>HasPlacedArmies</title>
<polygon fill="none" stroke="black" points="189.978,-933.8 76.596,-915.8 189.978,-897.8 303.361,-915.8 189.978,-933.8"/>
<text text-anchor="middle" x="189.978" y="-911.6" font-family="Times,serif" font-size="14.00">HasPlacedArmies</text>
</g>
<!-- OccupyingTerritory&#45;&gt;HasPlacedArmies -->
<g id="edge5" class="edge"><title>OccupyingTerritory&#45;&gt;HasPlacedArmies</title>
<path fill="none" stroke="black" d="M68.7872,-986.572C72.7702,-975.304 79.4922,-960.968 89.9123,-951.8 101.531,-941.578 116.312,-934.295 130.925,-929.123"/>
<polygon fill="black" stroke="black" points="132.041,-932.441 140.468,-926.02 129.876,-925.784 132.041,-932.441"/>
<text text-anchor="middle" x="137.011" y="-956" font-family="Times,serif" font-size="14.00">OccupyTerritory</text>
</g>
<!-- PlacingAdditionalArmy -->
<g id="node4" class="node"><title>PlacingAdditionalArmy</title>
<path fill="none" stroke="black" d="M284.013,-1022.6C284.013,-1022.6 157.943,-1022.6 157.943,-1022.6 151.943,-1022.6 145.943,-1016.6 145.943,-1010.6 145.943,-1010.6 145.943,-998.6 145.943,-998.6 145.943,-992.6 151.943,-986.6 157.943,-986.6 157.943,-986.6 284.013,-986.6 284.013,-986.6 290.013,-986.6 296.013,-992.6 296.013,-998.6 296.013,-998.6 296.013,-1010.6 296.013,-1010.6 296.013,-1016.6 290.013,-1022.6 284.013,-1022.6"/>
<text text-anchor="middle" x="220.978" y="-1000.4" font-family="Times,serif" font-size="14.00">PlacingAdditionalArmy</text>
</g>
<!-- PlacingAdditionalArmy&#45;&gt;HasPlacedArmies -->
<g id="edge6" class="edge"><title>PlacingAdditionalArmy&#45;&gt;HasPlacedArmies</title>
<path fill="none" stroke="black" d="M202.124,-986.301C197.645,-981.088 193.46,-975.029 191.01,-968.6 188.071,-960.885 187.107,-952.044 187.079,-943.876"/>
<polygon fill="black" stroke="black" points="190.585,-943.811 187.495,-933.677 183.59,-943.526 190.585,-943.811"/>
<text text-anchor="middle" x="251.462" y="-956" font-family="Times,serif" font-size="14.00">PlaceAddtionalArmy</text>
</g>
<!-- TradingCards -->
<g id="node5" class="node"><title>TradingCards</title>
<path fill="none" stroke="black" d="M591.453,-699C591.453,-699 522.503,-699 522.503,-699 516.503,-699 510.503,-693 510.503,-687 510.503,-687 510.503,-675 510.503,-675 510.503,-669 516.503,-663 522.503,-663 522.503,-663 591.453,-663 591.453,-663 597.453,-663 603.453,-669 603.453,-675 603.453,-675 603.453,-687 603.453,-687 603.453,-693 597.453,-699 591.453,-699"/>
<text text-anchor="middle" x="556.978" y="-676.8" font-family="Times,serif" font-size="14.00">TradingCards</text>
</g>
<!-- PlacingNewArmies -->
<g id="node6" class="node"><title>PlacingNewArmies</title>
<path fill="none" stroke="black" d="M516.607,-610.2C516.607,-610.2 415.349,-610.2 415.349,-610.2 409.349,-610.2 403.349,-604.2 403.349,-598.2 403.349,-598.2 403.349,-586.2 403.349,-586.2 403.349,-580.2 409.349,-574.2 415.349,-574.2 415.349,-574.2 516.607,-574.2 516.607,-574.2 522.607,-574.2 528.607,-580.2 528.607,-586.2 528.607,-586.2 528.607,-598.2 528.607,-598.2 528.607,-604.2 522.607,-610.2 516.607,-610.2"/>
<text text-anchor="middle" x="465.978" y="-588" font-family="Times,serif" font-size="14.00">PlacingNewArmies</text>
</g>
<!-- TradingCards&#45;&gt;PlacingNewArmies -->
<g id="edge13" class="edge"><title>TradingCards&#45;&gt;PlacingNewArmies</title>
<path fill="none" stroke="black" d="M539,-662.851C525.414,-649.893 506.585,-631.933 491.45,-617.496"/>
<polygon fill="black" stroke="black" points="493.571,-614.683 483.92,-610.313 488.74,-619.748 493.571,-614.683"/>
<text text-anchor="middle" x="547.576" y="-632.4" font-family="Times,serif" font-size="14.00">EndTrade</text>
</g>
<!-- HasCards -->
<g id="node15" class="node"><title>HasCards</title>
<polygon fill="none" stroke="black" points="465.978,-787.8 397.084,-769.8 465.978,-751.8 534.872,-769.8 465.978,-787.8"/>
<text text-anchor="middle" x="465.978" y="-765.6" font-family="Times,serif" font-size="14.00">HasCards</text>
</g>
<!-- TradingCards&#45;&gt;HasCards -->
<g id="edge12" class="edge"><title>TradingCards&#45;&gt;HasCards</title>
<path fill="none" stroke="black" d="M510.106,-694.798C498.413,-699.993 486.884,-707.169 478.68,-717 472.943,-723.874 469.728,-732.944 467.948,-741.572"/>
<polygon fill="black" stroke="black" points="464.452,-741.287 466.416,-751.698 471.373,-742.335 464.452,-741.287"/>
<text text-anchor="middle" x="511.628" y="-721.2" font-family="Times,serif" font-size="14.00">TradeCards</text>
</g>
<!-- HasUndeployedArmies -->
<g id="node16" class="node"><title>HasUndeployedArmies</title>
<polygon fill="none" stroke="black" points="454.978,-521.4 311.401,-503.4 454.978,-485.4 598.555,-503.4 454.978,-521.4"/>
<text text-anchor="middle" x="454.978" y="-499.2" font-family="Times,serif" font-size="14.00">HasUndeployedArmies</text>
</g>
<!-- PlacingNewArmies&#45;&gt;HasUndeployedArmies -->
<g id="edge14" class="edge"><title>PlacingNewArmies&#45;&gt;HasUndeployedArmies</title>
<path fill="none" stroke="black" d="M402.94,-574.931C394.684,-570.195 387.281,-564.084 382.026,-556.2 371.957,-541.093 386.287,-528.984 404.837,-520.283"/>
<polygon fill="black" stroke="black" points="406.372,-523.434 414.194,-516.288 403.623,-516.996 406.372,-523.434"/>
<text text-anchor="middle" x="431.954" y="-543.6" font-family="Times,serif" font-size="14.00">PlaceNewArmies</text>
</g>
<!-- Battling -->
<g id="node7" class="node"><title>Battling</title>
<path fill="none" stroke="black" d="M473.592,-448.4C473.592,-448.4 436.365,-448.4 436.365,-448.4 430.365,-448.4 424.365,-442.4 424.365,-436.4 424.365,-436.4 424.365,-424.4 424.365,-424.4 424.365,-418.4 430.365,-412.4 436.365,-412.4 436.365,-412.4 473.592,-412.4 473.592,-412.4 479.592,-412.4 485.592,-418.4 485.592,-424.4 485.592,-424.4 485.592,-436.4 485.592,-436.4 485.592,-442.4 479.592,-448.4 473.592,-448.4"/>
<text text-anchor="middle" x="454.978" y="-426.2" font-family="Times,serif" font-size="14.00">Battling</text>
</g>
<!-- RollingDice -->
<g id="node8" class="node"><title>RollingDice</title>
<path fill="none" stroke="black" d="M433.414,-359.6C433.414,-359.6 372.542,-359.6 372.542,-359.6 366.542,-359.6 360.542,-353.6 360.542,-347.6 360.542,-347.6 360.542,-335.6 360.542,-335.6 360.542,-329.6 366.542,-323.6 372.542,-323.6 372.542,-323.6 433.414,-323.6 433.414,-323.6 439.414,-323.6 445.414,-329.6 445.414,-335.6 445.414,-335.6 445.414,-347.6 445.414,-347.6 445.414,-353.6 439.414,-359.6 433.414,-359.6"/>
<text text-anchor="middle" x="402.978" y="-337.4" font-family="Times,serif" font-size="14.00">RollingDice</text>
</g>
<!-- Battling&#45;&gt;RollingDice -->
<g id="edge18" class="edge"><title>Battling&#45;&gt;RollingDice</title>
<path fill="none" stroke="black" d="M438.953,-412.355C434.275,-406.874 429.39,-400.608 425.541,-394.4 420.711,-386.611 416.401,-377.607 412.875,-369.312"/>
<polygon fill="black" stroke="black" points="416.108,-367.973 409.111,-360.017 409.62,-370.6 416.108,-367.973"/>
<text text-anchor="middle" x="442.697" y="-381.8" font-family="Times,serif" font-size="14.00">Battle</text>
</g>
<!-- Fortifying -->
<g id="node9" class="node"><title>Fortifying</title>
<path fill="none" stroke="black" d="M309.254,-359.6C309.254,-359.6 260.702,-359.6 260.702,-359.6 254.702,-359.6 248.702,-353.6 248.702,-347.6 248.702,-347.6 248.702,-335.6 248.702,-335.6 248.702,-329.6 254.702,-323.6 260.702,-323.6 260.702,-323.6 309.254,-323.6 309.254,-323.6 315.254,-323.6 321.254,-329.6 321.254,-335.6 321.254,-335.6 321.254,-347.6 321.254,-347.6 321.254,-353.6 315.254,-359.6 309.254,-359.6"/>
<text text-anchor="middle" x="284.978" y="-337.4" font-family="Times,serif" font-size="14.00">Fortifying</text>
</g>
<!-- Battling&#45;&gt;Fortifying -->
<g id="edge17" class="edge"><title>Battling&#45;&gt;Fortifying</title>
<path fill="none" stroke="black" d="M424.056,-421.566C403.293,-415.644 375.708,-406.469 353.109,-394.4 338.626,-386.666 323.952,-375.957 311.951,-366.283"/>
<polygon fill="black" stroke="black" points="314.042,-363.471 304.104,-359.8 309.584,-368.868 314.042,-363.471"/>
<text text-anchor="middle" x="383.913" y="-381.8" font-family="Times,serif" font-size="14.00">EndAttack</text>
</g>
<!-- HasDefeatedTerritory -->
<g id="node17" class="node"><title>HasDefeatedTerritory</title>
<polygon fill="none" stroke="black" points="442.978,-270.8 307.656,-252.8 442.978,-234.8 578.301,-252.8 442.978,-270.8"/>
<text text-anchor="middle" x="442.978" y="-248.6" font-family="Times,serif" font-size="14.00">HasDefeatedTerritory</text>
</g>
<!-- RollingDice&#45;&gt;HasDefeatedTerritory -->
<g id="edge19" class="edge"><title>RollingDice&#45;&gt;HasDefeatedTerritory</title>
<path fill="none" stroke="black" d="M401.985,-323.508C402.038,-313.025 403.329,-299.59 408.434,-288.8 410.659,-284.097 413.782,-279.65 417.249,-275.603"/>
<polygon fill="black" stroke="black" points="419.805,-277.995 424.197,-268.353 414.751,-273.152 419.805,-277.995"/>
<text text-anchor="middle" x="434.25" y="-293" font-family="Times,serif" font-size="14.00">RollDice</text>
</g>
<!-- HasEarnedCard -->
<g id="node19" class="node"><title>HasEarnedCard</title>
<polygon fill="none" stroke="black" points="187.978,-270.8 85.8649,-252.8 187.978,-234.8 290.092,-252.8 187.978,-270.8"/>
<text text-anchor="middle" x="187.978" y="-248.6" font-family="Times,serif" font-size="14.00">HasEarnedCard</text>
</g>
<!-- Fortifying&#45;&gt;HasEarnedCard -->
<g id="edge26" class="edge"><title>Fortifying&#45;&gt;HasEarnedCard</title>
<path fill="none" stroke="black" d="M249.047,-323.434C240.36,-318.373 231.464,-312.355 224.093,-305.6 215.519,-297.742 207.848,-287.5 201.805,-278.2"/>
<polygon fill="black" stroke="black" points="204.772,-276.343 196.534,-269.681 198.82,-280.026 204.772,-276.343"/>
<text text-anchor="middle" x="244.421" y="-293" font-family="Times,serif" font-size="14.00">Fortify</text>
</g>
<!-- Fortifying&#45;&gt;HasEarnedCard -->
<g id="edge27" class="edge"><title>Fortifying&#45;&gt;HasEarnedCard</title>
<path fill="none" stroke="black" d="M281.093,-323.426C277.841,-312.381 272.208,-298.359 262.978,-288.8 254.795,-280.326 244.162,-273.689 233.486,-268.583"/>
<polygon fill="black" stroke="black" points="234.717,-265.301 224.154,-264.482 231.901,-271.71 234.717,-265.301"/>
<text text-anchor="middle" x="299.861" y="-293" font-family="Times,serif" font-size="14.00">EndTurn</text>
</g>
<!-- DrawingRandomCard -->
<g id="node10" class="node"><title>DrawingRandomCard</title>
<path fill="none" stroke="black" d="M153.611,-197.8C153.611,-197.8 38.3452,-197.8 38.3452,-197.8 32.3452,-197.8 26.3452,-191.8 26.3452,-185.8 26.3452,-185.8 26.3452,-173.8 26.3452,-173.8 26.3452,-167.8 32.3452,-161.8 38.3452,-161.8 38.3452,-161.8 153.611,-161.8 153.611,-161.8 159.611,-161.8 165.611,-167.8 165.611,-173.8 165.611,-173.8 165.611,-185.8 165.611,-185.8 165.611,-191.8 159.611,-197.8 153.611,-197.8"/>
<text text-anchor="middle" x="95.9783" y="-175.6" font-family="Times,serif" font-size="14.00">DrawingRandomCard</text>
</g>
<!-- SetupNextTurn -->
<g id="node13" class="node"><title>SetupNextTurn</title>
<polygon fill="none" stroke="black" points="189.978,-860.8 90.3659,-842.8 189.978,-824.8 289.591,-842.8 189.978,-860.8"/>
<text text-anchor="middle" x="189.978" y="-838.6" font-family="Times,serif" font-size="14.00">SetupNextTurn</text>
</g>
<!-- DrawingRandomCard&#45;&gt;SetupNextTurn -->
<g id="edge30" class="edge"><title>DrawingRandomCard&#45;&gt;SetupNextTurn</title>
<path fill="none" stroke="black" d="M79.7088,-197.98C68.6345,-211.509 55.9783,-231.427 55.9783,-251.8 55.9783,-770.8 55.9783,-770.8 55.9783,-770.8 55.9783,-805.186 90.857,-822.966 125.025,-832.134"/>
<polygon fill="black" stroke="black" points="124.543,-835.619 135.089,-834.605 126.212,-828.821 124.543,-835.619"/>
<text text-anchor="middle" x="108.849" y="-499.2" font-family="Times,serif" font-size="14.00">DrawRandomCard</text>
</g>
<!-- Capturing -->
<g id="node11" class="node"><title>Capturing</title>
<path fill="none" stroke="black" d="M540.971,-197.8C540.971,-197.8 492.985,-197.8 492.985,-197.8 486.985,-197.8 480.985,-191.8 480.985,-185.8 480.985,-185.8 480.985,-173.8 480.985,-173.8 480.985,-167.8 486.985,-161.8 492.985,-161.8 492.985,-161.8 540.971,-161.8 540.971,-161.8 546.971,-161.8 552.971,-167.8 552.971,-173.8 552.971,-173.8 552.971,-185.8 552.971,-185.8 552.971,-191.8 546.971,-197.8 540.971,-197.8"/>
<text text-anchor="middle" x="516.978" y="-175.6" font-family="Times,serif" font-size="14.00">Capturing</text>
</g>
<!-- HasDefeatedOpponent -->
<g id="node18" class="node"><title>HasDefeatedOpponent</title>
<polygon fill="none" stroke="black" points="605.978,-109 466.022,-91 605.978,-73 745.934,-91 605.978,-109"/>
<text text-anchor="middle" x="605.978" y="-86.8" font-family="Times,serif" font-size="14.00">HasDefeatedOpponent</text>
</g>
<!-- Capturing&#45;&gt;HasDefeatedOpponent -->
<g id="edge22" class="edge"><title>Capturing&#45;&gt;HasDefeatedOpponent</title>
<path fill="none" stroke="black" d="M524.514,-161.487C529.842,-150.659 537.786,-136.932 547.661,-127 553.765,-120.861 561.155,-115.368 568.595,-110.654"/>
<polygon fill="black" stroke="black" points="570.474,-113.609 577.277,-105.486 566.894,-107.594 570.474,-113.609"/>
<text text-anchor="middle" x="570.137" y="-131.2" font-family="Times,serif" font-size="14.00">Capture</text>
</g>
<!-- InitialChoice&#45;&gt;OccupyingTerritory -->
<g id="edge3" class="edge"><title>InitialChoice&#45;&gt;OccupyingTerritory</title>
<path fill="none" stroke="black" d="M195.053,-1064.88C172.304,-1054.59 138.652,-1039.37 111.142,-1026.93"/>
<polygon fill="black" stroke="black" points="112.25,-1023.59 101.696,-1022.66 109.365,-1029.97 112.25,-1023.59"/>
</g>
<!-- InitialChoice&#45;&gt;PlacingAdditionalArmy -->
<g id="edge4" class="edge"><title>InitialChoice&#45;&gt;PlacingAdditionalArmy</title>
<path fill="none" stroke="black" d="M220.978,-1059.41C220.978,-1051.39 220.978,-1041.65 220.978,-1032.67"/>
<polygon fill="black" stroke="black" points="224.478,-1032.63 220.978,-1022.63 217.478,-1032.63 224.478,-1032.63"/>
</g>
<!-- SetupNextTurn&#45;&gt;HasCards -->
<g id="edge9" class="edge"><title>SetupNextTurn&#45;&gt;HasCards</title>
<path fill="none" stroke="black" d="M228.937,-831.778C280.169,-818.599 369.891,-795.518 423.034,-781.847"/>
<polygon fill="black" stroke="black" points="424.02,-785.208 432.833,-779.326 422.276,-778.428 424.02,-785.208"/>
</g>
<!-- HasPlacedArmies&#45;&gt;InitialChoice -->
<g id="edge7" class="edge"><title>HasPlacedArmies&#45;&gt;InitialChoice</title>
<path fill="none" stroke="black" d="M262.07,-922.411C280.558,-927.511 298.455,-936.435 309.978,-951.8 328.905,-977.036 321.356,-995.64 304.978,-1022.6 294.574,-1039.73 276.439,-1052.4 259.676,-1061.14"/>
<polygon fill="black" stroke="black" points="258.007,-1058.06 250.562,-1065.6 261.083,-1064.35 258.007,-1058.06"/>
</g>
<!-- HasPlacedArmies&#45;&gt;SetupNextTurn -->
<g id="edge8" class="edge"><title>HasPlacedArmies&#45;&gt;SetupNextTurn</title>
<path fill="none" stroke="black" d="M189.978,-897.613C189.978,-889.589 189.978,-879.847 189.978,-870.869"/>
<polygon fill="black" stroke="black" points="193.478,-870.829 189.978,-860.829 186.478,-870.829 193.478,-870.829"/>
</g>
<!-- HasCards&#45;&gt;TradingCards -->
<g id="edge10" class="edge"><title>HasCards&#45;&gt;TradingCards</title>
<path fill="none" stroke="black" d="M503.147,-761.344C519.259,-756.236 536.929,-747.756 547.978,-733.8 553.457,-726.881 556.081,-717.799 557.225,-709.175"/>
<polygon fill="black" stroke="black" points="560.726,-709.292 557.979,-699.06 553.745,-708.772 560.726,-709.292"/>
</g>
<!-- HasCards&#45;&gt;PlacingNewArmies -->
<g id="edge11" class="edge"><title>HasCards&#45;&gt;PlacingNewArmies</title>
<path fill="none" stroke="black" d="M465.978,-751.643C465.978,-721.22 465.978,-657.576 465.978,-620.883"/>
<polygon fill="black" stroke="black" points="469.478,-620.427 465.978,-610.427 462.478,-620.427 469.478,-620.427"/>
</g>
<!-- HasUndeployedArmies&#45;&gt;PlacingNewArmies -->
<g id="edge15" class="edge"><title>HasUndeployedArmies&#45;&gt;PlacingNewArmies</title>
<path fill="none" stroke="black" d="M469.24,-519.976C473.558,-525.669 477.745,-532.431 479.978,-539.4 482.537,-547.384 481.566,-556.157 479.231,-564.177"/>
<polygon fill="black" stroke="black" points="475.854,-563.223 475.708,-573.816 482.428,-565.626 475.854,-563.223"/>
</g>
<!-- HasUndeployedArmies&#45;&gt;Battling -->
<g id="edge16" class="edge"><title>HasUndeployedArmies&#45;&gt;Battling</title>
<path fill="none" stroke="black" d="M454.978,-485.213C454.978,-477.189 454.978,-467.447 454.978,-458.469"/>
<polygon fill="black" stroke="black" points="458.478,-458.429 454.978,-448.429 451.478,-458.429 458.478,-458.429"/>
</g>
<!-- HasDefeatedTerritory&#45;&gt;Battling -->
<g id="edge20" class="edge"><title>HasDefeatedTerritory&#45;&gt;Battling</title>
<path fill="none" stroke="black" d="M451.978,-269.678C454.805,-275.503 457.557,-282.272 458.978,-288.8 467.409,-327.518 463.544,-373.643 459.585,-402.229"/>
<polygon fill="black" stroke="black" points="456.1,-401.867 458.088,-412.274 463.024,-402.899 456.1,-401.867"/>
</g>
<!-- HasDefeatedTerritory&#45;&gt;Capturing -->
<g id="edge21" class="edge"><title>HasDefeatedTerritory&#45;&gt;Capturing</title>
<path fill="none" stroke="black" d="M458.672,-236.743C468.324,-227.482 480.91,-215.406 491.917,-204.845"/>
<polygon fill="black" stroke="black" points="494.437,-207.278 499.23,-197.829 489.591,-202.227 494.437,-207.278"/>
</g>
<!-- HasDefeatedOpponent&#45;&gt;TradingCards -->
<g id="edge23" class="edge"><title>HasDefeatedOpponent&#45;&gt;TradingCards</title>
<path fill="none" stroke="black" d="M617.586,-107.735C628.761,-124.47 643.978,-152.151 643.978,-178.8 643.978,-593.2 643.978,-593.2 643.978,-593.2 643.978,-620.7 621.925,-642.512 600.024,-657.392"/>
<polygon fill="black" stroke="black" points="597.89,-654.603 591.363,-662.948 601.67,-660.495 597.89,-654.603"/>
</g>
<!-- HasDefeatedOpponent&#45;&gt;Battling -->
<g id="edge25" class="edge"><title>HasDefeatedOpponent&#45;&gt;Battling</title>
<path fill="none" stroke="black" d="M605.978,-109.292C605.978,-126.81 605.978,-154.689 605.978,-178.8 605.978,-342.6 605.978,-342.6 605.978,-342.6 605.978,-393.656 540.29,-415.123 495.565,-423.822"/>
<polygon fill="black" stroke="black" points="494.756,-420.411 485.535,-425.63 495.998,-427.3 494.756,-420.411"/>
</g>
<!-- GameOver -->
<g id="node20" class="node"><title>GameOver</title>
<polygon fill="none" stroke="black" points="605.978,-36 530.455,-18 605.978,-3.55271e-15 681.502,-18 605.978,-36"/>
<text text-anchor="middle" x="605.978" y="-13.8" font-family="Times,serif" font-size="14.00">GameOver</text>
</g>
<!-- HasDefeatedOpponent&#45;&gt;GameOver -->
<g id="edge24" class="edge"><title>HasDefeatedOpponent&#45;&gt;GameOver</title>
<path fill="none" stroke="black" d="M605.978,-72.8129C605.978,-64.7895 605.978,-55.0475 605.978,-46.0691"/>
<polygon fill="black" stroke="black" points="609.478,-46.0288 605.978,-36.0288 602.478,-46.0289 609.478,-46.0288"/>
</g>
<!-- HasEarnedCard&#45;&gt;DrawingRandomCard -->
<g id="edge28" class="edge"><title>HasEarnedCard&#45;&gt;DrawingRandomCard</title>
<path fill="none" stroke="black" d="M169.802,-237.773C157.37,-228.178 140.595,-215.232 126.177,-204.105"/>
<polygon fill="black" stroke="black" points="128.066,-201.142 118.011,-197.803 123.789,-206.684 128.066,-201.142"/>
</g>
<!-- HasEarnedCard&#45;&gt;SetupNextTurn -->
<g id="edge29" class="edge"><title>HasEarnedCard&#45;&gt;SetupNextTurn</title>
<path fill="none" stroke="black" d="M188.6,-270.762C189.187,-288.257 189.978,-316.332 189.978,-340.6 189.978,-770.8 189.978,-770.8 189.978,-770.8 189.978,-785.149 189.978,-801.129 189.978,-814.289"/>
<polygon fill="black" stroke="black" points="186.478,-814.584 189.978,-824.584 193.478,-814.584 186.478,-814.584"/>
</g>
</g>
</svg>
