<?xml version="1.0" encoding="UTF-8" standalone="no"?>
<!DOCTYPE svg PUBLIC "-//W3C//DTD SVG 1.1//EN"
 "http://www.w3.org/Graphics/SVG/1.1/DTD/svg11.dtd">
<!-- Generated by graphviz version 2.40.1 (20161225.0304)
 -->
<!-- Title: %0 Pages: 1 -->
<svg width="971pt" height="1265pt"
 viewBox="0.00 0.00 971.39 1265.40" xmlns="http://www.w3.org/2000/svg" xmlns:xlink="http://www.w3.org/1999/xlink">
<g id="graph0" class="graph" transform="scale(1 1) rotate(0) translate(4 1261.4)">
<title>%0</title>
<polygon fill="#ffffff" stroke="transparent" points="-4,4 -4,-1261.4 967.3894,-1261.4 967.3894,4 -4,4"/>
<!-- Initializing -->
<g id="node1" class="node">
<title>Initializing</title>
<path fill="none" stroke="#000000" d="M247.9129,-1257.4C247.9129,-1257.4 194.0437,-1257.4 194.0437,-1257.4 188.0437,-1257.4 182.0437,-1251.4 182.0437,-1245.4 182.0437,-1245.4 182.0437,-1233.4 182.0437,-1233.4 182.0437,-1227.4 188.0437,-1221.4 194.0437,-1221.4 194.0437,-1221.4 247.9129,-1221.4 247.9129,-1221.4 253.9129,-1221.4 259.9129,-1227.4 259.9129,-1233.4 259.9129,-1233.4 259.9129,-1245.4 259.9129,-1245.4 259.9129,-1251.4 253.9129,-1257.4 247.9129,-1257.4"/>
<text text-anchor="middle" x="220.9783" y="-1235.2" font-family="Times,serif" font-size="14.00" fill="#000000">Initializing</text>
</g>
<!-- SelectingFirstPlayer -->
<g id="node2" class="node">
<title>SelectingFirstPlayer</title>
<path fill="none" stroke="#000000" d="M273.5093,-1168.6C273.5093,-1168.6 168.4473,-1168.6 168.4473,-1168.6 162.4473,-1168.6 156.4473,-1162.6 156.4473,-1156.6 156.4473,-1156.6 156.4473,-1144.6 156.4473,-1144.6 156.4473,-1138.6 162.4473,-1132.6 168.4473,-1132.6 168.4473,-1132.6 273.5093,-1132.6 273.5093,-1132.6 279.5093,-1132.6 285.5093,-1138.6 285.5093,-1144.6 285.5093,-1144.6 285.5093,-1156.6 285.5093,-1156.6 285.5093,-1162.6 279.5093,-1168.6 273.5093,-1168.6"/>
<text text-anchor="middle" x="220.9783" y="-1146.4" font-family="Times,serif" font-size="14.00" fill="#000000">SelectingFirstPlayer</text>
</g>
<!-- Initializing&#45;&gt;SelectingFirstPlayer -->
<g id="edge1" class="edge">
<title>Initializing&#45;&gt;SelectingFirstPlayer</title>
<path fill="none" stroke="#000000" d="M220.9783,-1221.0006C220.9783,-1208.8949 220.9783,-1192.8076 220.9783,-1179.0674"/>
<polygon fill="#000000" stroke="#000000" points="224.4784,-1178.672 220.9783,-1168.672 217.4784,-1178.6721 224.4784,-1178.672"/>
<text text-anchor="middle" x="252.08" y="-1190.8" font-family="Times,serif" font-size="14.00" fill="#000000">StartMatch</text>
</g>
<!-- InitialChoice -->
<g id="node12" class="node">
<title>InitialChoice</title>
<polygon fill="none" stroke="#000000" points="220.9783,-1079.8 134.156,-1061.8 220.9783,-1043.8 307.8006,-1061.8 220.9783,-1079.8"/>
<text text-anchor="middle" x="220.9783" y="-1057.6" font-family="Times,serif" font-size="14.00" fill="#000000">InitialChoice</text>
</g>
<!-- SelectingFirstPlayer&#45;&gt;InitialChoice -->
<g id="edge2" class="edge">
<title>SelectingFirstPlayer&#45;&gt;InitialChoice</title>
<path fill="none" stroke="#000000" d="M220.9783,-1132.2006C220.9783,-1120.0949 220.9783,-1104.0076 220.9783,-1090.2674"/>
<polygon fill="#000000" stroke="#000000" points="224.4784,-1089.872 220.9783,-1079.872 217.4784,-1089.8721 224.4784,-1089.872"/>
<text text-anchor="middle" x="268.7981" y="-1102" font-family="Times,serif" font-size="14.00" fill="#000000">SelectFirstPlayer</text>
</g>
<!-- OccupyingTerritory -->
<g id="node3" class="node">
<title>OccupyingTerritory</title>
<path fill="none" stroke="#000000" d="M115.9349,-1006.8C115.9349,-1006.8 12.0217,-1006.8 12.0217,-1006.8 6.0217,-1006.8 .0217,-1000.8 .0217,-994.8 .0217,-994.8 .0217,-982.8 .0217,-982.8 .0217,-976.8 6.0217,-970.8 12.0217,-970.8 12.0217,-970.8 115.9349,-970.8 115.9349,-970.8 121.9349,-970.8 127.9349,-976.8 127.9349,-982.8 127.9349,-982.8 127.9349,-994.8 127.9349,-994.8 127.9349,-1000.8 121.9349,-1006.8 115.9349,-1006.8"/>
<text text-anchor="middle" x="63.9783" y="-984.6" font-family="Times,serif" font-size="14.00" fill="#000000">OccupyingTerritory</text>
</g>
<!-- HasPlacedArmies -->
<g id="node14" class="node">
<title>HasPlacedArmies</title>
<polygon fill="none" stroke="#000000" points="189.9783,-918 76.596,-900 189.9783,-882 303.3606,-900 189.9783,-918"/>
<text text-anchor="middle" x="189.9783" y="-895.8" font-family="Times,serif" font-size="14.00" fill="#000000">HasPlacedArmies</text>
</g>
<!-- OccupyingTerritory&#45;&gt;HasPlacedArmies -->
<g id="edge5" class="edge">
<title>OccupyingTerritory&#45;&gt;HasPlacedArmies</title>
<path fill="none" stroke="#000000" d="M68.9957,-970.7241C72.9865,-959.3726 79.6365,-945.1921 89.9123,-936 101.1486,-925.9487 115.3977,-918.6468 129.5944,-913.363"/>
<polygon fill="#000000" stroke="#000000" points="131.0469,-916.5654 139.3769,-910.0185 128.7823,-909.9418 131.0469,-916.5654"/>
<text text-anchor="middle" x="137.0113" y="-940.2" font-family="Times,serif" font-size="14.00" fill="#000000">OccupyTerritory</text>
</g>
<!-- PlacingAdditionalArmy -->
<g id="node4" class="node">
<title>PlacingAdditionalArmy</title>
<path fill="none" stroke="#000000" d="M284.0134,-1006.8C284.0134,-1006.8 157.9432,-1006.8 157.9432,-1006.8 151.9432,-1006.8 145.9432,-1000.8 145.9432,-994.8 145.9432,-994.8 145.9432,-982.8 145.9432,-982.8 145.9432,-976.8 151.9432,-970.8 157.9432,-970.8 157.9432,-970.8 284.0134,-970.8 284.0134,-970.8 290.0134,-970.8 296.0134,-976.8 296.0134,-982.8 296.0134,-982.8 296.0134,-994.8 296.0134,-994.8 296.0134,-1000.8 290.0134,-1006.8 284.0134,-1006.8"/>
<text text-anchor="middle" x="220.9783" y="-984.6" font-family="Times,serif" font-size="14.00" fill="#000000">PlacingAdditionalArmy</text>
</g>
<!-- PlacingAdditionalArmy&#45;&gt;HasPlacedArmies -->
<g id="edge6" class="edge">
<title>PlacingAdditionalArmy&#45;&gt;HasPlacedArmies</title>
<path fill="none" stroke="#000000" d="M201.8044,-970.5523C197.4437,-965.2767 193.3969,-959.2006 191.0105,-952.8 188.0828,-944.9475 187.1142,-935.9712 187.0789,-927.6747"/>
<polygon fill="#000000" stroke="#000000" points="190.577,-927.7898 187.4562,-917.665 183.5819,-927.5261 190.577,-927.7898"/>
<text text-anchor="middle" x="251.4622" y="-940.2" font-family="Times,serif" font-size="14.00" fill="#000000">PlaceAddtionalArmy</text>
</g>
<!-- TradingCards -->
<g id="node5" class="node">
<title>TradingCards</title>
<path fill="none" stroke="#000000" d="M224.4531,-699C224.4531,-699 155.5035,-699 155.5035,-699 149.5035,-699 143.5035,-693 143.5035,-687 143.5035,-687 143.5035,-675 143.5035,-675 143.5035,-669 149.5035,-663 155.5035,-663 155.5035,-663 224.4531,-663 224.4531,-663 230.4531,-663 236.4531,-669 236.4531,-675 236.4531,-675 236.4531,-687 236.4531,-687 236.4531,-693 230.4531,-699 224.4531,-699"/>
<text text-anchor="middle" x="189.9783" y="-676.8" font-family="Times,serif" font-size="14.00" fill="#000000">TradingCards</text>
</g>
<!-- PlacingNewArmies -->
<g id="node6" class="node">
<title>PlacingNewArmies</title>
<path fill="none" stroke="#000000" d="M308.6072,-610.2C308.6072,-610.2 207.3494,-610.2 207.3494,-610.2 201.3494,-610.2 195.3494,-604.2 195.3494,-598.2 195.3494,-598.2 195.3494,-586.2 195.3494,-586.2 195.3494,-580.2 201.3494,-574.2 207.3494,-574.2 207.3494,-574.2 308.6072,-574.2 308.6072,-574.2 314.6072,-574.2 320.6072,-580.2 320.6072,-586.2 320.6072,-586.2 320.6072,-598.2 320.6072,-598.2 320.6072,-604.2 314.6072,-610.2 308.6072,-610.2"/>
<text text-anchor="middle" x="257.9783" y="-588" font-family="Times,serif" font-size="14.00" fill="#000000">PlacingNewArmies</text>
</g>
<!-- TradingCards&#45;&gt;PlacingNewArmies -->
<g id="edge13" class="edge">
<title>TradingCards&#45;&gt;PlacingNewArmies</title>
<path fill="none" stroke="#000000" d="M187.6181,-662.5312C187.1694,-651.7205 188.3073,-638.262 194.7833,-628.2 197.615,-623.8003 201.1857,-619.8817 205.182,-616.4037"/>
<polygon fill="#000000" stroke="#000000" points="207.451,-619.0758 213.3093,-610.2479 203.2245,-613.4957 207.451,-619.0758"/>
<text text-anchor="middle" x="222.5758" y="-632.4" font-family="Times,serif" font-size="14.00" fill="#000000">EndTrade</text>
</g>
<!-- HasCards -->
<g id="node15" class="node">
<title>HasCards</title>
<polygon fill="none" stroke="#000000" points="189.9783,-772 121.0842,-754 189.9783,-736 258.8724,-754 189.9783,-772"/>
<text text-anchor="middle" x="189.9783" y="-749.8" font-family="Times,serif" font-size="14.00" fill="#000000">HasCards</text>
</g>
<!-- TradingCards&#45;&gt;HasCards -->
<g id="edge12" class="edge">
<title>TradingCards&#45;&gt;HasCards</title>
<path fill="none" stroke="#000000" d="M195.8929,-699.0332C196.7379,-707.5685 196.9419,-717.9329 196.5049,-727.3513"/>
<polygon fill="#000000" stroke="#000000" points="193.0065,-727.1988 195.7391,-737.4352 199.9864,-727.7289 193.0065,-727.1988"/>
</g>
<!-- HasUndeployedArmies -->
<g id="node16" class="node">
<title>HasUndeployedArmies</title>
<polygon fill="none" stroke="#000000" points="332.9783,-521.4 189.4014,-503.4 332.9783,-485.4 476.5552,-503.4 332.9783,-521.4"/>
<text text-anchor="middle" x="332.9783" y="-499.2" font-family="Times,serif" font-size="14.00" fill="#000000">HasUndeployedArmies</text>
</g>
<!-- PlacingNewArmies&#45;&gt;HasUndeployedArmies -->
<g id="edge14" class="edge">
<title>PlacingNewArmies&#45;&gt;HasUndeployedArmies</title>
<path fill="none" stroke="#000000" d="M244.0426,-573.965C237.6528,-563.2371 232.9122,-549.7836 240.0259,-539.4 244.998,-532.1423 260.6823,-524.9712 277.7858,-518.9625"/>
<polygon fill="#000000" stroke="#000000" points="279.0041,-522.2457 287.3747,-515.7508 276.7808,-515.6081 279.0041,-522.2457"/>
<text text-anchor="middle" x="289.9545" y="-543.6" font-family="Times,serif" font-size="14.00" fill="#000000">PlaceNewArmies</text>
</g>
<!-- Battling -->
<g id="node7" class="node">
<title>Battling</title>
<path fill="none" stroke="#000000" d="M683.592,-448.4C683.592,-448.4 646.3646,-448.4 646.3646,-448.4 640.3646,-448.4 634.3646,-442.4 634.3646,-436.4 634.3646,-436.4 634.3646,-424.4 634.3646,-424.4 634.3646,-418.4 640.3646,-412.4 646.3646,-412.4 646.3646,-412.4 683.592,-412.4 683.592,-412.4 689.592,-412.4 695.592,-418.4 695.592,-424.4 695.592,-424.4 695.592,-436.4 695.592,-436.4 695.592,-442.4 689.592,-448.4 683.592,-448.4"/>
<text text-anchor="middle" x="664.9783" y="-426.2" font-family="Times,serif" font-size="14.00" fill="#000000">Battling</text>
</g>
<!-- RollingDice -->
<g id="node8" class="node">
<title>RollingDice</title>
<path fill="none" stroke="#000000" d="M776.4142,-359.6C776.4142,-359.6 715.5424,-359.6 715.5424,-359.6 709.5424,-359.6 703.5424,-353.6 703.5424,-347.6 703.5424,-347.6 703.5424,-335.6 703.5424,-335.6 703.5424,-329.6 709.5424,-323.6 715.5424,-323.6 715.5424,-323.6 776.4142,-323.6 776.4142,-323.6 782.4142,-323.6 788.4142,-329.6 788.4142,-335.6 788.4142,-335.6 788.4142,-347.6 788.4142,-347.6 788.4142,-353.6 782.4142,-359.6 776.4142,-359.6"/>
<text text-anchor="middle" x="745.9783" y="-337.4" font-family="Times,serif" font-size="14.00" fill="#000000">RollingDice</text>
</g>
<!-- Battling&#45;&gt;RollingDice -->
<g id="edge18" class="edge">
<title>Battling&#45;&gt;RollingDice</title>
<path fill="none" stroke="#000000" d="M681.7616,-412.0006C693.5692,-399.0559 709.5296,-381.5586 722.5846,-367.2464"/>
<polygon fill="#000000" stroke="#000000" points="725.3404,-369.4188 729.4937,-359.672 720.1687,-364.7014 725.3404,-369.4188"/>
<text text-anchor="middle" x="728.6971" y="-381.8" font-family="Times,serif" font-size="14.00" fill="#000000">Battle</text>
</g>
<!-- Fortifying -->
<g id="node9" class="node">
<title>Fortifying</title>
<path fill="none" stroke="#000000" d="M614.2542,-359.6C614.2542,-359.6 565.7024,-359.6 565.7024,-359.6 559.7024,-359.6 553.7024,-353.6 553.7024,-347.6 553.7024,-347.6 553.7024,-335.6 553.7024,-335.6 553.7024,-329.6 559.7024,-323.6 565.7024,-323.6 565.7024,-323.6 614.2542,-323.6 614.2542,-323.6 620.2542,-323.6 626.2542,-329.6 626.2542,-335.6 626.2542,-335.6 626.2542,-347.6 626.2542,-347.6 626.2542,-353.6 620.2542,-359.6 614.2542,-359.6"/>
<text text-anchor="middle" x="589.9783" y="-337.4" font-family="Times,serif" font-size="14.00" fill="#000000">Fortifying</text>
</g>
<!-- Battling&#45;&gt;Fortifying -->
<g id="edge17" class="edge">
<title>Battling&#45;&gt;Fortifying</title>
<path fill="none" stroke="#000000" d="M634.2975,-423.5664C618.5597,-418.3549 600.7225,-409.4198 591.1087,-394.4 586.5906,-387.3413 585.1548,-378.5919 585.1763,-370.259"/>
<polygon fill="#000000" stroke="#000000" points="588.6815,-370.2978 585.8604,-360.0855 581.6972,-369.8281 588.6815,-370.2978"/>
<text text-anchor="middle" x="620.9131" y="-381.8" font-family="Times,serif" font-size="14.00" fill="#000000">EndAttack</text>
</g>
<!-- HasDefeatedTerritory -->
<g id="node17" class="node">
<title>HasDefeatedTerritory</title>
<polygon fill="none" stroke="#000000" points="827.9783,-270.8 692.656,-252.8 827.9783,-234.8 963.3006,-252.8 827.9783,-270.8"/>
<text text-anchor="middle" x="827.9783" y="-248.6" font-family="Times,serif" font-size="14.00" fill="#000000">HasDefeatedTerritory</text>
</g>
<!-- RollingDice&#45;&gt;HasDefeatedTerritory -->
<g id="edge19" class="edge">
<title>RollingDice&#45;&gt;HasDefeatedTerritory</title>
<path fill="none" stroke="#000000" d="M746.1202,-323.3415C747.0695,-312.3407 749.8791,-298.6094 757.4341,-288.8 763.1641,-281.3601 770.8577,-275.3277 779.0593,-270.4812"/>
<polygon fill="#000000" stroke="#000000" points="780.9048,-273.4639 788.0895,-265.6773 777.6172,-267.284 780.9048,-273.4639"/>
<text text-anchor="middle" x="782.2504" y="-293" font-family="Times,serif" font-size="14.00" fill="#000000">RollDice</text>
</g>
<!-- HasEarnedCard -->
<g id="node19" class="node">
<title>HasEarnedCard</title>
<polygon fill="none" stroke="#000000" points="519.9783,-270.8 417.8649,-252.8 519.9783,-234.8 622.0917,-252.8 519.9783,-270.8"/>
<text text-anchor="middle" x="519.9783" y="-248.6" font-family="Times,serif" font-size="14.00" fill="#000000">HasEarnedCard</text>
</g>
<!-- Fortifying&#45;&gt;HasEarnedCard -->
<g id="edge26" class="edge">
<title>Fortifying&#45;&gt;HasEarnedCard</title>
<path fill="none" stroke="#000000" d="M594.0501,-323.1831C595.4128,-312.3908 595.253,-298.9334 588.9783,-288.8 583.8045,-280.4446 576.0008,-273.931 567.4792,-268.8871"/>
<polygon fill="#000000" stroke="#000000" points="568.9022,-265.6815 558.419,-264.1472 565.6573,-271.884 568.9022,-265.6815"/>
<text text-anchor="middle" x="613.4208" y="-293" font-family="Times,serif" font-size="14.00" fill="#000000">Fortify</text>
</g>
<!-- Fortifying&#45;&gt;HasEarnedCard -->
<g id="edge27" class="edge">
<title>Fortifying&#45;&gt;HasEarnedCard</title>
<path fill="none" stroke="#000000" d="M554.4356,-323.5595C547.2534,-318.5623 540.3426,-312.5614 535.2125,-305.6 529.901,-298.3925 526.4365,-289.3739 524.1786,-280.8407"/>
<polygon fill="#000000" stroke="#000000" points="527.5432,-279.8438 521.9799,-270.8271 520.7061,-281.3451 527.5432,-279.8438"/>
<text text-anchor="middle" x="559.8612" y="-293" font-family="Times,serif" font-size="14.00" fill="#000000">EndTurn</text>
</g>
<!-- DrawingRandomCard -->
<g id="node10" class="node">
<title>DrawingRandomCard</title>
<path fill="none" stroke="#000000" d="M446.6114,-197.8C446.6114,-197.8 331.3452,-197.8 331.3452,-197.8 325.3452,-197.8 319.3452,-191.8 319.3452,-185.8 319.3452,-185.8 319.3452,-173.8 319.3452,-173.8 319.3452,-167.8 325.3452,-161.8 331.3452,-161.8 331.3452,-161.8 446.6114,-161.8 446.6114,-161.8 452.6114,-161.8 458.6114,-167.8 458.6114,-173.8 458.6114,-173.8 458.6114,-185.8 458.6114,-185.8 458.6114,-191.8 452.6114,-197.8 446.6114,-197.8"/>
<text text-anchor="middle" x="388.9783" y="-175.6" font-family="Times,serif" font-size="14.00" fill="#000000">DrawingRandomCard</text>
</g>
<!-- SetupNextTurn -->
<g id="node13" class="node">
<title>SetupNextTurn</title>
<polygon fill="none" stroke="#000000" points="189.9783,-845 90.3659,-827 189.9783,-809 289.5907,-827 189.9783,-845"/>
<text text-anchor="middle" x="189.9783" y="-822.8" font-family="Times,serif" font-size="14.00" fill="#000000">SetupNextTurn</text>
</g>
<!-- DrawingRandomCard&#45;&gt;SetupNextTurn -->
<g id="edge30" class="edge">
<title>DrawingRandomCard&#45;&gt;SetupNextTurn</title>
<path fill="none" stroke="#000000" d="M319.1811,-186.8766C213.9881,-198.499 26.9783,-223.3083 26.9783,-252.8 26.9783,-754 26.9783,-754 26.9783,-754 26.9783,-778.5334 89.2604,-800.6297 136.8263,-813.9278"/>
<polygon fill="#000000" stroke="#000000" points="136.1565,-817.373 146.7252,-816.6296 137.9997,-810.62 136.1565,-817.373"/>
<text text-anchor="middle" x="79.8493" y="-499.2" font-family="Times,serif" font-size="14.00" fill="#000000">DrawRandomCard</text>
</g>
<!-- Capturing -->
<g id="node11" class="node">
<title>Capturing</title>
<path fill="none" stroke="#000000" d="M801.9713,-197.8C801.9713,-197.8 753.9853,-197.8 753.9853,-197.8 747.9853,-197.8 741.9853,-191.8 741.9853,-185.8 741.9853,-185.8 741.9853,-173.8 741.9853,-173.8 741.9853,-167.8 747.9853,-161.8 753.9853,-161.8 753.9853,-161.8 801.9713,-161.8 801.9713,-161.8 807.9713,-161.8 813.9713,-167.8 813.9713,-173.8 813.9713,-173.8 813.9713,-185.8 813.9713,-185.8 813.9713,-191.8 807.9713,-197.8 801.9713,-197.8"/>
<text text-anchor="middle" x="777.9783" y="-175.6" font-family="Times,serif" font-size="14.00" fill="#000000">Capturing</text>
</g>
<!-- HasDefeatedOpponent -->
<g id="node18" class="node">
<title>HasDefeatedOpponent</title>
<polygon fill="none" stroke="#000000" points="664.9783,-109 525.0223,-91 664.9783,-73 804.9343,-91 664.9783,-109"/>
<text text-anchor="middle" x="664.9783" y="-86.8" font-family="Times,serif" font-size="14.00" fill="#000000">HasDefeatedOpponent</text>
</g>
<!-- Capturing&#45;&gt;HasDefeatedOpponent -->
<g id="edge22" class="edge">
<title>Capturing&#45;&gt;HasDefeatedOpponent</title>
<path fill="none" stroke="#000000" d="M754.8384,-161.6157C736.8396,-147.4715 711.8039,-127.7974 692.7285,-112.8072"/>
<polygon fill="#000000" stroke="#000000" points="694.719,-109.9201 684.6937,-106.4932 690.3938,-115.424 694.719,-109.9201"/>
<text text-anchor="middle" x="753.1368" y="-131.2" font-family="Times,serif" font-size="14.00" fill="#000000">Capture</text>
</g>
<!-- InitialChoice&#45;&gt;OccupyingTerritory -->
<g id="edge3" class="edge">
<title>InitialChoice&#45;&gt;OccupyingTerritory</title>
<path fill="none" stroke="#000000" d="M193.989,-1049.2509C171.5591,-1038.8217 139.0837,-1023.7216 112.2021,-1011.2226"/>
<polygon fill="#000000" stroke="#000000" points="113.4962,-1007.9644 102.9527,-1006.9219 110.5448,-1014.3118 113.4962,-1007.9644"/>
</g>
<!-- InitialChoice&#45;&gt;PlacingAdditionalArmy -->
<g id="edge4" class="edge">
<title>InitialChoice&#45;&gt;PlacingAdditionalArmy</title>
<path fill="none" stroke="#000000" d="M220.9783,-1043.7551C220.9783,-1035.6828 220.9783,-1025.9764 220.9783,-1016.9817"/>
<polygon fill="#000000" stroke="#000000" points="224.4784,-1016.8903 220.9783,-1006.8904 217.4784,-1016.8904 224.4784,-1016.8903"/>
</g>
<!-- SetupNextTurn&#45;&gt;HasCards -->
<g id="edge9" class="edge">
<title>SetupNextTurn&#45;&gt;HasCards</title>
<path fill="none" stroke="#000000" d="M189.9783,-808.9551C189.9783,-800.8828 189.9783,-791.1764 189.9783,-782.1817"/>
<polygon fill="#000000" stroke="#000000" points="193.4784,-782.0903 189.9783,-772.0904 186.4784,-782.0904 193.4784,-782.0903"/>
</g>
<!-- HasPlacedArmies&#45;&gt;InitialChoice -->
<g id="edge7" class="edge">
<title>HasPlacedArmies&#45;&gt;InitialChoice</title>
<path fill="none" stroke="#000000" d="M243.419,-909.5512C271.4341,-915.7615 301.6363,-924.7881 309.9783,-936 328.8085,-961.3084 321.2428,-979.7712 304.9783,-1006.8 294.7409,-1023.8126 276.9836,-1036.5746 260.4251,-1045.5004"/>
<polygon fill="#000000" stroke="#000000" points="258.7455,-1042.4277 251.4046,-1050.0672 261.9073,-1048.673 258.7455,-1042.4277"/>
</g>
<!-- HasPlacedArmies&#45;&gt;SetupNextTurn -->
<g id="edge8" class="edge">
<title>HasPlacedArmies&#45;&gt;SetupNextTurn</title>
<path fill="none" stroke="#000000" d="M189.9783,-881.9551C189.9783,-873.8828 189.9783,-864.1764 189.9783,-855.1817"/>
<polygon fill="#000000" stroke="#000000" points="193.4784,-855.0903 189.9783,-845.0904 186.4784,-855.0904 193.4784,-855.0903"/>
</g>
<!-- HasCards&#45;&gt;TradingCards -->
<g id="edge10" class="edge">
<title>HasCards&#45;&gt;TradingCards</title>
<path fill="none" stroke="#000000" d="M184.2175,-737.4352C183.298,-729.1218 183.0195,-718.8181 183.3821,-709.2991"/>
<polygon fill="#000000" stroke="#000000" points="186.8934,-709.2432 184.0637,-699.0332 179.9088,-708.7793 186.8934,-709.2432"/>
</g>
<!-- HasCards&#45;&gt;PlacingNewArmies -->
<g id="edge11" class="edge">
<title>HasCards&#45;&gt;PlacingNewArmies</title>
<path fill="none" stroke="#000000" d="M208.5231,-740.825C221.0268,-730.8519 236.6997,-715.9963 244.9783,-699 256.9981,-674.323 259.502,-642.7846 259.4543,-620.3936"/>
<polygon fill="#000000" stroke="#000000" points="262.95,-620.1367 259.2564,-610.2066 255.9514,-620.2727 262.95,-620.1367"/>
</g>
<!-- HasUndeployedArmies&#45;&gt;PlacingNewArmies -->
<g id="edge15" class="edge">
<title>HasUndeployedArmies&#45;&gt;PlacingNewArmies</title>
<path fill="none" stroke="#000000" d="M339.8671,-520.8857C342.9937,-531.8581 344.6776,-545.8389 337.9783,-556.2 335.1059,-560.6424 331.5402,-564.5421 327.5222,-567.9645"/>
<polygon fill="#000000" stroke="#000000" points="325.3082,-565.2475 319.3013,-573.9749 329.4396,-570.8983 325.3082,-565.2475"/>
</g>
<!-- HasUndeployedArmies&#45;&gt;Battling -->
<g id="edge16" class="edge">
<title>HasUndeployedArmies&#45;&gt;Battling</title>
<path fill="none" stroke="#000000" d="M385.2185,-491.9134C451.5056,-477.3383 564.4234,-452.51 624.5312,-439.2935"/>
<polygon fill="#000000" stroke="#000000" points="625.3986,-442.6864 634.4137,-437.1205 623.8953,-435.8498 625.3986,-442.6864"/>
</g>
<!-- HasDefeatedTerritory&#45;&gt;Battling -->
<g id="edge20" class="edge">
<title>HasDefeatedTerritory&#45;&gt;Battling</title>
<path fill="none" stroke="#000000" d="M826.3266,-270.9769C823.51,-293.5639 816.0835,-332.4382 796.9783,-359.6 775.27,-390.4626 735.7649,-409.0845 705.6108,-419.4269"/>
<polygon fill="#000000" stroke="#000000" points="704.21,-416.2019 695.7823,-422.6226 706.3745,-422.8589 704.21,-416.2019"/>
</g>
<!-- HasDefeatedTerritory&#45;&gt;Capturing -->
<g id="edge21" class="edge">
<title>HasDefeatedTerritory&#45;&gt;Capturing</title>
<path fill="none" stroke="#000000" d="M816.6325,-236.2352C810.5711,-227.3854 802.9648,-216.2803 796.1066,-206.2673"/>
<polygon fill="#000000" stroke="#000000" points="798.8684,-204.1057 790.3298,-197.8332 793.0932,-208.0614 798.8684,-204.1057"/>
</g>
<!-- HasDefeatedOpponent&#45;&gt;TradingCards -->
<g id="edge23" class="edge">
<title>HasDefeatedOpponent&#45;&gt;TradingCards</title>
<path fill="none" stroke="#000000" d="M576.6115,-97.6771C432.0664,-109.8007 160.9783,-138.0971 160.9783,-179.8 160.9783,-592.2 160.9783,-592.2 160.9783,-592.2 160.9783,-613.4848 168.6002,-636.2845 176.0291,-653.4517"/>
<polygon fill="#000000" stroke="#000000" points="172.9848,-655.2113 180.3217,-662.8546 179.3526,-652.3042 172.9848,-655.2113"/>
</g>
<!-- HasDefeatedOpponent&#45;&gt;Battling -->
<g id="edge25" class="edge">
<title>HasDefeatedOpponent&#45;&gt;Battling</title>
<path fill="none" stroke="#000000" d="M664.9783,-109.0279C664.9783,-126.9689 664.9783,-155.2875 664.9783,-179.8 664.9783,-341.6 664.9783,-341.6 664.9783,-341.6 664.9783,-361.8994 664.9783,-384.809 664.9783,-402.2736"/>
<polygon fill="#000000" stroke="#000000" points="661.4784,-402.3721 664.9783,-412.3721 668.4784,-402.3721 661.4784,-402.3721"/>
</g>
<!-- GameOver -->
<g id="node20" class="node">
<title>GameOver</title>
<polygon fill="none" stroke="#000000" points="664.9783,-36 589.4551,-18 664.9783,0 740.5015,-18 664.9783,-36"/>
<text text-anchor="middle" x="664.9783" y="-13.8" font-family="Times,serif" font-size="14.00" fill="#000000">GameOver</text>
</g>
<!-- HasDefeatedOpponent&#45;&gt;GameOver -->
<g id="edge24" class="edge">
<title>HasDefeatedOpponent&#45;&gt;GameOver</title>
<path fill="none" stroke="#000000" d="M664.9783,-72.9551C664.9783,-64.8828 664.9783,-55.1764 664.9783,-46.1817"/>
<polygon fill="#000000" stroke="#000000" points="668.4784,-46.0903 664.9783,-36.0904 661.4784,-46.0904 668.4784,-46.0903"/>
</g>
<!-- HasEarnedCard&#45;&gt;DrawingRandomCard -->
<g id="edge28" class="edge">
<title>HasEarnedCard&#45;&gt;DrawingRandomCard</title>
<path fill="none" stroke="#000000" d="M495.3382,-239.0693C477.05,-228.8781 451.6861,-214.744 430.3141,-202.8344"/>
<polygon fill="#000000" stroke="#000000" points="431.8703,-199.6949 421.4313,-197.8845 428.4629,-205.8096 431.8703,-199.6949"/>
</g>
<!-- HasEarnedCard&#45;&gt;SetupNextTurn -->
<g id="edge29" class="edge">
<title>HasEarnedCard&#45;&gt;SetupNextTurn</title>
<path fill="none" stroke="#000000" d="M515.3144,-270.0106C510.9111,-287.7949 504.9783,-316.4275 504.9783,-341.6 504.9783,-754 504.9783,-754 504.9783,-754 504.9783,-799.9711 376.0453,-816.9996 283.1553,-823.3026"/>
<polygon fill="#000000" stroke="#000000" points="282.906,-819.8113 273.1529,-823.9497 283.358,-826.7967 282.906,-819.8113"/>
</g>
</g>
</svg>
